<svg width="80" height="74" viewBox="0 0 80 74" fill="none" xmlns="http://www.w3.org/2000/svg">
<mask id="mask0_430_300" style="mask-type:alpha" maskUnits="userSpaceOnUse" x="2" y="22" width="69" height="51">
<path d="M3.64446 63.1425C1.08842 51.6403 5.3485 36.3039 13.0167 26.5057C18.2208 22.6212 21.2335 22.3375 26.649 22.6716C29.2455 22.5821 29.709 23.5182 29.2051 26.5057C34.7403 23.1273 37.5607 23.0074 41.5593 26.5057L43.6894 22.6716C49.6507 24.0158 54.5853 24.893 60.3038 26.5057C67.4638 35.0743 71.335 44.0843 70.102 62.7165C63.9034 68.1861 57.9307 70.1407 49.2275 72.0887L45.8194 66.5506C36.206 69.5511 31.4926 69.4357 24.0929 66.5506C22.4239 68.4206 21.8038 69.5765 20.7131 71.61L20.6848 71.6627C12.3225 71.3265 8.22879 70.096 3.64446 63.1425Z" fill="#5865F2"/>
</mask>
<g mask="url(#mask0_430_300)">
<path d="M-8.99848 28.3548C-7.84059 25.7827 -4.38801 24.9859 -2.53327 20.5236ZM-8.99848 28.3548C-7.58015 27.0687 -6.51728 25.2008 -2.53327 20.5236ZM-8.95273 32.817C-3.76155 28.4437 0.0535205 23.6183 2.12999 19.3896ZM-8.95273 32.817C-4.8385 28.1658 -1.18884 24.5115 2.12999 19.3896ZM-9.13574 37.5572C-6.28851 33.94 -0.449759 27.8396 5.87116 19.3784ZM-9.13574 37.5572C-2.75499 31.3012 2.62271 23.3626 5.87116 19.3784ZM-9.08999 42.0194C-2.31506 34.5107 4.11144 25.9087 9.61233 19.3636ZM-9.08999 42.0194C-2.89225 33.1543 4.48802 25.2119 9.61233 19.3636ZM-9.04424 46.4853C-1.79419 36.2156 6.04713 30.2375 13.3535 19.3525ZM-9.04424 46.4853C-1.00231 36.9123 6.51522 26.6685 13.3535 19.3525ZM-8.99496 50.9476C1.63023 40.8816 10.9075 27.4356 17.0947 19.3377ZM-8.99496 50.9476C1.3346 38.6246 10.6611 26.3905 17.0947 19.3377ZM-8.94921 55.4098C0.968576 44.4173 8.48962 34.4069 20.8358 19.3266ZM-8.94921 55.4098C1.98218 42.1862 11.6747 29.2591 20.8358 19.3266ZM-9.13222 60.15C-1.18884 50.2212 6.94107 41.8638 24.577 19.3154ZM-9.13222 60.15C-0.203398 49.3836 9.62288 39.2991 24.577 19.3154ZM-9.08647 64.6122C1.588 52.0631 12.6742 39.0508 28.3182 19.3006ZM-9.08647 64.6122C-1.41761 54.2535 7.04313 44.1727 28.3182 19.3006ZM-8.1151 67.9589C0.0816771 55.7211 9.16184 46.0554 32.0593 19.2895ZM-8.1151 67.9589C1.34164 55.9138 10.8301 45.1808 32.0593 19.2895ZM-6.45393 70.4605C4.87868 56.3363 16.8729 42.3974 35.8005 19.2747ZM-6.45393 70.4605C3.46386 56.2066 14.6416 43.6946 35.8005 19.2747ZM-4.32818 72.4063C8.20103 56.3808 20.7901 41.3671 39.5417 19.2635ZM-4.32818 72.4063C6.75806 59.0974 19.6357 44.762 39.5417 19.2635ZM-1.28035 73.2328C8.63744 61.6213 19.5618 48.4088 43.0541 19.5304ZM-1.28035 73.2328C7.98986 61.3841 17.4677 48.3533 43.0541 19.5304ZM1.99977 73.7813C18.3969 51.27 36.7437 30.5896 46.7952 19.5156ZM1.99977 73.7813C17.0313 54.7835 32.4324 37.3163 46.7952 19.5156ZM5.74094 73.7664C16.4189 60.8912 28.9869 47.2711 50.5364 19.5045ZM5.74094 73.7664C21.494 54.8094 37.1027 37.7091 50.5364 19.5045ZM9.48211 73.7553C17.2073 61.966 26.2628 49.832 54.2776 19.4896ZM9.48211 73.7553C21.779 59.8387 31.8693 46.7225 54.2776 19.4896ZM13.2233 73.7405C32.6682 52.0742 49.2976 30.8453 58.0187 19.4785ZM13.2233 73.7405C25.1612 60.5428 35.6668 47.89 58.0187 19.4785ZM16.9644 73.7294C34.2836 55.988 47.1613 35.3928 61.7599 19.4674ZM16.9644 73.7294C30.3172 57.8818 44.5358 40.7927 61.7599 19.4674ZM20.7056 73.7146C33.3017 58.6193 44.124 44.232 65.5011 19.4526ZM20.7056 73.7146C31.454 60.5132 42.4769 46.83 65.5011 19.4526ZM24.4468 73.7034C42.8147 52.456 59.1203 32.502 69.2422 19.4414ZM24.4468 73.7034C35.431 60.0833 47.1718 46.5446 69.2422 19.4414ZM28.1879 73.6923C39.6437 63.3929 47.5414 51.3738 72.9834 19.4266ZM28.1879 73.6923C41.9138 57.4148 55.9141 40.8371 72.9834 19.4266ZM31.9291 73.6775C44.2296 57.6631 57.0861 42.9274 76.0312 20.2531ZM31.9291 73.6775C43.758 60.0573 54.5697 46.2519 76.0312 20.2531ZM35.6703 73.6664C50.2654 56.4068 67.6233 34.5848 79.0791 21.0796ZM35.6703 73.6664C46.3025 61.1729 56.9347 47.575 79.0791 21.0796ZM39.4114 73.6516C51.2157 58.0708 63.1923 44.169 82.3592 21.6281ZM39.4114 73.6516C54.8336 55.9509 67.7781 39.2213 82.3592 21.6281ZM43.1526 73.6404C57.1037 53.9607 72.3569 37.7721 84.4849 23.5701ZM43.1526 73.6404C55.8226 58.3747 67.0004 43.9726 84.4849 23.5701ZM46.6615 73.9073C56.8116 62.7517 67.5811 49.6319 85.224 27.1947ZM46.6615 73.9073C61.1334 55.2134 75.901 37.4645 85.224 27.1947ZM50.4062 73.8924C64.1672 56.9441 78.7588 40.9891 85.9631 30.8194ZM50.4062 73.8924C63.773 56.9738 76.7668 40.1812 85.9631 30.8194ZM54.1473 73.8813C65.9903 59.2383 76.07 44.888 86.0089 35.2816ZM54.1473 73.8813C64.5508 59.8461 76.2424 46.641 86.0089 35.2816ZM57.8885 73.8665C64.0194 64.4528 71.8185 58.3673 86.0546 39.7438ZM57.8885 73.8665C64.9098 63.9525 72.4625 54.7909 86.0546 39.7438ZM61.6297 73.8554C69.7666 64.5826 75.8271 55.4357 85.8716 44.4877ZM61.6297 73.8554C70.3403 61.3841 79.7689 51.1736 85.8716 44.4877ZM65.3708 73.8443C69.4323 69.4339 72.3253 63.7524 85.9174 48.9499ZM65.3708 73.8443C72.4731 65.5165 79.6563 57.3963 85.9174 48.9499ZM69.112 73.8294C72.9095 68.2554 75.996 65.4053 85.9666 53.4122ZM69.112 73.8294C75.5385 67.2139 80.7895 60.5132 85.9666 53.4122ZM72.8532 73.8183C77.9986 67.7736 81.4793 64.3157 86.0124 57.8744ZM72.8532 73.8183C76.6295 69.3932 79.9589 66.1243 86.0124 57.8744ZM75.901 74.6448C78.4772 70.8312 82.8871 65.435 86.2904 62.055ZM75.901 74.6448C78.5828 70.3753 82.148 67.0657 86.2904 62.055Z" stroke="#909BF8" stroke-width="2" stroke-linecap="round"/>
<path d="M-7.29438 27.5027C-6.13649 24.9306 -2.68391 24.1338 -0.829167 19.6716ZM-7.29438 27.5027C-5.87605 26.2167 -4.81318 24.3488 -0.829167 19.6716ZM-7.24863 31.965C-2.05745 27.5917 1.75762 22.7662 3.83409 18.5375ZM-7.24863 31.965C-3.1344 27.3137 0.515259 23.6594 3.83409 18.5375ZM-7.43164 36.7051C-4.58441 33.0879 1.25434 26.9876 7.57526 18.5264ZM-7.43164 36.7051C-1.05089 30.4491 4.32682 22.5105 7.57526 18.5264ZM-7.38589 41.1674C-0.610962 33.6587 5.81554 25.0567 11.3164 18.5116ZM-7.38589 41.1674C-1.18815 32.3022 6.19212 24.3599 11.3164 18.5116ZM-7.34014 45.6333C-0.0900843 35.3635 7.75123 29.3855 15.0576 18.5004ZM-7.34014 45.6333C0.70179 36.0603 8.21932 25.8164 15.0576 18.5004ZM-7.29086 50.0955C3.33433 40.0296 12.6116 26.5836 18.7988 18.4856ZM-7.29086 50.0955C3.0387 37.7725 12.3652 25.5385 18.7988 18.4856ZM-7.24511 54.5577C2.67268 43.5653 10.1937 33.5549 22.5399 18.4745ZM-7.24511 54.5577C3.68628 41.3341 13.3788 28.407 22.5399 18.4745ZM-7.42812 59.2979C0.515259 49.3691 8.64517 41.0117 26.2811 18.4634ZM-7.42812 59.2979C1.5007 48.5315 11.327 38.447 26.2811 18.4634ZM-7.38237 63.7602C3.2921 51.2111 14.3783 38.1987 30.0223 18.4486ZM-7.38237 63.7602C0.286496 53.4014 8.74723 43.3206 30.0223 18.4486ZM-6.411 67.1068C1.78578 54.8691 10.8659 45.2034 33.7634 18.4374ZM-6.411 67.1068C3.04574 55.0618 12.5342 44.3287 33.7634 18.4374ZM-4.74983 69.6085C6.58278 55.4843 18.577 41.5454 37.5046 18.4226ZM-4.74983 69.6085C5.16796 55.3546 16.3457 42.8426 37.5046 18.4226ZM-2.62408 71.5542C9.90513 55.5288 22.4942 40.5151 41.2458 18.4115ZM-2.62408 71.5542C8.46216 58.2454 21.3398 43.9099 41.2458 18.4115ZM0.423754 72.3807C10.3415 60.7693 21.2659 47.5568 44.7582 18.6783ZM0.423754 72.3807C9.69396 60.5321 19.1718 47.5012 44.7582 18.6783ZM3.70387 72.9292C20.101 50.418 38.4478 29.7375 48.4993 18.6635ZM3.70387 72.9292C18.7354 53.9314 34.1365 36.4642 48.4993 18.6635ZM7.44504 72.9144C18.123 60.0392 30.691 46.419 52.2405 18.6524ZM7.44504 72.9144C23.1981 53.9573 38.8068 36.8571 52.2405 18.6524ZM11.1862 72.9033C18.9114 61.114 27.9669 48.98 55.9817 18.6376ZM11.1862 72.9033C23.4831 58.9866 33.5734 45.8705 55.9817 18.6376ZM14.9274 72.8884C34.3723 51.2222 51.0017 29.9933 59.7228 18.6265ZM14.9274 72.8884C26.8653 59.6908 37.3709 47.0379 59.7228 18.6265ZM18.6685 72.8773C35.9877 55.1359 48.8654 34.5407 63.464 18.6153ZM18.6685 72.8773C32.0213 57.0298 46.2399 39.9406 63.464 18.6153ZM22.4097 72.8625C35.0058 57.7673 45.8281 43.3799 67.2052 18.6005ZM22.4097 72.8625C33.1581 59.6611 44.181 45.978 67.2052 18.6005ZM26.1509 72.8514C44.5188 51.6039 60.8244 31.6499 70.9463 18.5894ZM26.1509 72.8514C37.1351 59.2312 48.8759 45.6926 70.9463 18.5894ZM29.892 72.8403C41.3478 62.5408 49.2455 50.5217 74.6875 18.5746ZM29.892 72.8403C43.6179 56.5628 57.6182 39.9851 74.6875 18.5746ZM33.6332 72.8254C45.9337 56.8111 58.7902 42.0754 77.7353 19.401ZM33.6332 72.8254C45.4621 59.2053 56.2738 45.3998 77.7353 19.401ZM37.3744 72.8143C51.9695 55.5547 69.3274 33.7328 80.7832 20.2275ZM37.3744 72.8143C48.0066 60.3208 58.6388 46.7229 80.7832 20.2275ZM41.1155 72.7995C52.9198 57.2188 64.8964 43.3169 84.0633 20.776ZM41.1155 72.7995C56.5377 55.0988 69.4822 38.3692 84.0633 20.776ZM44.8567 72.7884C58.8078 53.1086 74.061 36.9201 86.189 22.7181ZM44.8567 72.7884C57.5267 57.5227 68.7045 43.1205 86.189 22.7181ZM48.3656 73.0552C58.5157 61.8997 69.2852 48.7798 86.9281 26.3427ZM48.3656 73.0552C62.8375 54.3613 77.6051 36.6125 86.9281 26.3427ZM52.1103 73.0404C65.8713 56.0921 80.4629 40.1371 87.6672 29.9673ZM52.1103 73.0404C65.4771 56.1217 78.4709 39.3291 87.6672 29.9673ZM55.8514 73.0293C67.6944 58.3862 77.7741 44.0359 87.713 34.4296ZM55.8514 73.0293C66.2549 58.994 77.9465 45.789 87.713 34.4296ZM59.5926 73.0145C65.7235 63.6008 73.5226 57.5153 87.7587 38.8918ZM59.5926 73.0145C66.6139 63.1005 74.1666 53.9388 87.7587 38.8918ZM63.3338 73.0033C71.4707 63.7305 77.5312 54.5837 87.5757 43.6357ZM63.3338 73.0033C72.0444 60.5321 81.473 50.3216 87.5757 43.6357ZM67.0749 72.9922C71.1364 68.5819 74.0294 62.9003 87.6215 48.0979ZM67.0749 72.9922C74.1772 64.6645 81.3604 56.5443 87.6215 48.0979ZM70.8161 72.9774C74.6136 67.4033 77.7001 64.5533 87.6707 52.5601ZM70.8161 72.9774C77.2426 66.3619 82.4936 59.6611 87.6707 52.5601ZM74.5573 72.9663C79.7027 66.9215 83.1834 63.4637 87.7165 57.0223ZM74.5573 72.9663C78.3336 68.5411 81.663 65.2723 87.7165 57.0223ZM77.6051 73.7928C80.1813 69.9791 84.5912 64.5829 87.9945 61.2029ZM77.6051 73.7928C80.2869 69.5232 83.8521 66.2136 87.9945 61.2029Z" stroke="#6677FF" stroke-linecap="round"/>
</g>
<ellipse cx="25.3711" cy="50.3623" rx="5.53813" ry="6.39014" fill="#F2EFE6"/>
<ellipse cx="44.1153" cy="51.2144" rx="5.53813" ry="6.39014" fill="#F2EFE6"/>
<path d="M24.2137 45.5659C24.9894 45.1285 26.0711 45.0548 26.9045 45.3955C27.7366 45.7345 28.7365 46.6566 29.2118 47.6015C29.6856 48.5481 29.8661 49.9181 29.7533 51.0702C29.6391 52.2224 29.1709 53.7276 28.5278 54.5197C27.8847 55.3118 26.8242 55.8159 25.892 55.8211C24.9612 55.8282 23.6792 55.2696 22.9388 54.5566C22.1984 53.8435 21.6061 52.6369 21.4495 51.5462C21.293 50.4538 21.3903 49.061 22.001 48.0054C22.613 46.9516 24.4365 45.6765 25.1163 45.2146C25.7961 44.7527 26.0979 45.1514 26.0838 45.2322M27.5758 45.7116C28.3783 46.1279 29.2781 47.1589 29.6673 48.2039C30.0565 49.2472 30.1694 50.8647 29.9099 51.9748C29.6504 53.0848 28.9339 54.2211 28.1117 54.8622C27.2895 55.505 25.8779 55.9774 24.9781 55.8264C24.0783 55.6771 23.3139 54.8534 22.7132 53.9647C22.1124 53.0742 21.451 51.6024 21.372 50.4889C21.293 49.3754 21.7104 48.1424 22.2393 47.2836C22.7682 46.4247 23.6707 45.6273 24.5451 45.3358C25.4195 45.046 27.0117 45.4394 27.4856 45.536C27.958 45.6326 27.3826 45.8381 27.384 45.9154M46.0215 45.5659C45.2458 45.1285 44.1641 45.0548 43.3306 45.3955C42.4986 45.7345 41.4987 46.6566 41.0234 47.6015C40.5496 48.5481 40.369 49.9181 40.4819 51.0702C40.5961 52.2224 41.0643 53.7276 41.7074 54.5197C42.3505 55.3118 43.411 55.8159 44.3432 55.8211C45.274 55.8282 46.556 55.2696 47.2964 54.5566C48.0368 53.8435 48.6291 52.6369 48.7856 51.5462C48.9422 50.4538 48.8449 49.061 48.2342 48.0054C47.6222 46.9516 45.7986 45.6765 45.1189 45.2146C44.4391 44.7527 44.1373 45.1514 44.1514 45.2322M42.6593 45.7116C41.8569 46.1279 40.9571 47.1589 40.5679 48.2039C40.1786 49.2472 40.0658 50.8647 40.3253 51.9748C40.5848 53.0848 41.3012 54.2211 42.1234 54.8622C42.9456 55.505 44.3573 55.9774 45.2571 55.8264C46.1569 55.6771 46.9212 54.8534 47.522 53.9647C48.1228 53.0742 48.7842 51.6024 48.8632 50.4889C48.9422 49.3754 48.5247 48.1424 47.9959 47.2836C47.467 46.4247 46.5644 45.6273 45.6901 45.3358C44.8157 45.046 43.2235 45.4394 42.7496 45.536C42.2772 45.6326 42.8526 45.8381 42.8511 45.9154M15.4587 30.6696C17.6849 29.6896 20.4552 29.0649 23.4721 28.6857M23.4721 28.6857C32.7582 27.5184 44.38 28.6769 49.6586 28.961C50.2048 28.9916 50.7142 29.0377 51.1891 29.097M23.4721 28.6857C20.5109 29.6182 17.4529 30.6704 14.6285 31.8298M23.4721 28.6857C29.3515 26.8343 34.8496 25.4549 37.3802 24.6462C42.6217 22.9667 38.3069 24.9648 37.887 26.0942M43.5484 26.6878C46.7563 27.1484 50.1326 28.3192 53.4119 29.9965M53.4119 29.9965C54.1709 30.3847 54.9248 30.8001 55.6701 31.24M53.4119 29.9965C52.6787 29.6779 51.9365 29.3776 51.1891 29.097M53.4119 29.9965C54.1758 30.3284 54.9299 30.6803 55.6701 31.0505M38.249 26.4706C42.241 26.4836 46.8052 27.4513 51.1891 29.097M51.1891 29.097C51.2625 29.1062 51.335 29.1156 51.4067 29.1254M13.2723 61.2497C20.8594 66.1726 32.5007 68.388 42.0714 67.2875C46.9887 66.7213 52.6688 65.1545 57.9223 62.8593M56.813 60.9224C54.5179 61.9779 52.238 62.8717 50.0929 63.5664C40.9421 66.5201 29.4745 67.5916 20.7001 64.4496C18.2428 63.5697 15.6889 62.3013 13.1879 60.7445M59.4943 27.0991C56.701 25.8669 53.6713 24.7358 50.7352 23.7268M50.7352 23.7268C48.4355 22.9366 46.1933 22.2214 44.1671 21.5913L43.4431 23.0474C45.9324 23.1623 48.4094 23.373 50.7352 23.7268ZM50.7352 23.7268C53.7412 24.1841 56.4944 24.8804 58.6945 25.9177M68.1337 62.9989C65.8859 65.6281 58.8182 69.4719 55.8821 70.4808M55.8821 70.4808C53.5825 71.271 51.3402 71.9863 49.314 72.6164L48.59 71.1602C51.0793 71.0453 53.5564 70.8346 55.8821 70.4808ZM55.8821 70.4808C58.8881 70.0235 65.5239 65.9901 67.3338 64.1802M2.42027 62.7834C4.66806 65.4127 11.7358 69.2565 14.6719 70.2654M14.6719 70.2654C16.9715 71.0556 19.2137 71.7708 21.2399 72.4009L21.9639 70.9448C19.4746 70.8299 16.9976 70.6192 14.6719 70.2654ZM14.6719 70.2654C11.6658 69.8081 5.03004 65.7747 3.22014 63.9648M11.5393 27.4045C14.3327 26.1723 17.3624 25.0412 20.2985 24.0323M20.2985 24.0323C22.5982 23.2421 24.8404 22.5268 26.8666 21.8967L27.5906 23.3529C25.1013 23.4677 22.6242 23.6785 20.2985 24.0323ZM20.2985 24.0323C17.2925 24.4895 14.5393 25.1858 12.3392 26.2232M60.3614 29.9794C59.8555 29.1981 59.3373 28.4558 58.8094 27.7593C58.4117 27.2359 57.9948 26.7177 57.5604 26.2061L58.1063 26.1724C58.924 27.352 59.6742 28.6306 60.3614 29.9794ZM60.3614 29.9794C65.4619 37.8562 69.3148 49.6994 69.2489 58.4987C69.2364 59.8885 69.1379 61.3053 68.9587 62.7324L67.1267 64.5423C67.3947 59.9301 66.9595 55.1249 66.3386 50.6944C65.432 44.2243 63.5943 36.3248 60.3614 29.9794ZM43.5492 22.5526L44.1076 22.5526C43.3006 23.7043 42.4886 24.8913 41.6678 26.1302L41.6969 26.1724C42.3969 24.8491 43.0159 23.652 43.5492 22.5526ZM48.6961 71.6551L49.2546 71.6551C48.4475 70.5034 47.1307 68.3897 46.3099 67.1508L46.339 67.1086C47.039 68.4318 48.1628 70.5557 48.6961 71.6551ZM21.8579 71.4397L21.2994 71.4397C22.1064 70.2879 23.4233 68.1743 24.244 66.9353L24.215 66.8932C23.515 68.2164 22.3911 70.3403 21.8579 71.4397ZM27.4845 22.858L26.9261 22.858C27.7331 24.0097 28.5451 25.1967 29.3659 26.4356L29.3368 26.4778C28.6368 25.1546 28.0178 23.9574 27.4845 22.858ZM7.12258 37.66C8.61964 34.054 10.7294 30.3436 13.3089 26.8964L12.0563 26.2646C7.52916 31.4438 4.31088 37.5747 2.87704 44.1916C1.69008 49.6377 1.47294 56.6951 2.35479 63.4564L4.26213 64.5423C3.05371 55.7206 3.96034 45.3074 7.12258 37.66Z" stroke="#0541FB" stroke-width="2" stroke-linecap="round"/>
<path d="M56.1506 5.90219L56.3725 14.9895M62.3032 16.0789L69.2435 7.12528M68.9451 21.0185L76.5831 18.7336" stroke="#0541FB" stroke-width="3" stroke-linecap="round"/>
</svg>
