<svg width="72" height="75" viewBox="0 0 72 75" fill="none" xmlns="http://www.w3.org/2000/svg">
<path d="M2.40957 30.3006C3.37258 28.7348 6.71814 25.5069 8.96159 22.7641ZM2.40957 30.3006C3.61868 28.9381 5.54826 26.1596 8.96159 22.7641ZM2.45594 34.5949C6.28657 31.0211 8.80823 28.4566 13.6875 21.6727ZM2.45594 34.5949C6.11894 30.3505 9.45023 26.3879 13.6875 21.6727ZM2.27047 39.1567C8.54429 32.8543 13.5305 25.7602 17.4789 21.662ZM2.27047 39.1567C6.37574 33.6176 11.3905 27.3509 17.4789 21.662ZM2.31684 43.451C6.90004 38.3292 11.4333 32.2979 21.2703 21.6478ZM2.31684 43.451C6.69674 38.4897 10.3669 33.5855 21.2703 21.6478ZM2.3632 47.7489C10.1493 38.5682 20.6283 29.0237 25.0617 21.6371ZM2.3632 47.7489C9.33966 39.1496 16.3589 31.6987 25.0617 21.6371ZM2.17773 52.3107C12.9634 39.3671 22.1049 28.8382 28.8531 21.6228ZM2.17773 52.3107C11.4761 42.3132 19.84 32.6082 28.8531 21.6228ZM2.2241 56.605C11.2621 49.5001 17.5038 38.6146 32.4091 21.8796ZM2.2241 56.605C11.2443 45.6409 20.532 34.8874 32.4091 21.8796ZM2.27404 60.8993C14.2581 46.9214 24.3483 35.6756 36.2005 21.8689ZM2.27404 60.8993C10.777 50.3062 20.8672 40.3515 36.2005 21.8689ZM3.49028 63.8489C13.42 51.7757 20.3679 42.2455 39.9919 21.8582ZM3.49028 63.8489C18.0602 49.1648 30.3404 33.6461 39.9919 21.8582ZM4.23929 67.3372C18.1779 52.4212 31.4746 37.4946 43.7868 21.8439ZM4.23929 67.3372C16.1592 54.2688 29.2632 40.6226 43.7868 21.8439ZM4.98829 70.8218C12.6103 59.7544 22.8539 51.3263 46.8756 22.6393ZM4.98829 70.8218C18.7094 54.8109 31.9311 39.7309 46.8756 22.6393ZM7.37798 72.4269C18.2564 59.4405 31.1037 47.1497 50.1962 23.1672ZM7.37798 72.4269C16.4267 61.8195 25.1687 52.3927 50.1962 23.1672ZM9.5287 74.2994C22.2368 59.0981 37.9089 42.677 52.1186 25.3072ZM9.5287 74.2994C22.6042 58.9768 34.542 44.7849 52.1186 25.3072ZM13.5555 74.0176C26.31 59.6081 41.2188 43.5152 54.2694 27.1797ZM13.5555 74.0176C26.845 60.8672 38.0444 47.4528 54.2694 27.1797ZM17.3469 74.0033C28.3537 58.9947 42.0748 45.0417 55.0219 30.6644ZM17.3469 74.0033C25.3292 64.2128 32.9334 54.1297 55.0219 30.6644ZM21.1383 73.9926C31.628 61.766 41.0619 52.3392 55.7709 34.1526ZM21.1383 73.9926C30.4545 63.5672 39.2464 52.9991 55.7709 34.1526ZM24.9297 73.9784C33.9249 65.2221 41.7824 54.5684 55.8173 38.4469ZM24.9297 73.9784C35.1233 62.597 45.5845 50.9054 55.8173 38.4469ZM28.7211 73.9677C34.278 67.0197 40.6339 58.4846 55.8637 42.7412ZM28.7211 73.9677C36.9102 62.8859 46.0731 52.9634 55.8637 42.7412ZM32.5125 73.9534C38.3369 67.6546 43.2661 62.2867 55.9136 47.0355ZM32.5125 73.9534C38.4939 67.6796 44.2862 61.0562 55.9136 47.0355ZM36.3039 73.9427C39.9063 66.9876 46.1765 61.0812 55.7246 51.6009ZM36.3039 73.9427C41.1903 67.2623 47.0147 61.7981 55.7246 51.6009ZM40.0953 73.932C45.6808 68.0327 52.7392 61.8409 55.7745 55.8952ZM40.0953 73.932C45.72 68.2895 50.7847 61.8409 55.7745 55.8952ZM43.6513 74.1888C46.3549 71.2748 50.3424 66.7736 54.1838 62.0727ZM43.6513 74.1888C46.6295 71.4282 49.2047 68.4108 54.1838 62.0727ZM49.5506 71.7528C50.9452 70.5615 51.9118 69.1776 52.8248 67.9827ZM49.5506 71.7528C50.1249 70.8504 51.1021 69.5485 52.8248 67.9827Z" stroke="url(#paint0_linear_430_280)" stroke-width="2" stroke-linecap="round"/>
<path d="M2.40957 28.5965C3.37258 27.0307 6.71814 23.8028 8.96159 21.06ZM2.40957 28.5965C3.61868 27.234 5.54826 24.4555 8.96159 21.06ZM2.45594 32.8908C6.28657 29.317 8.80823 26.7525 13.6875 19.9686ZM2.45594 32.8908C6.11894 28.6464 9.45023 24.6838 13.6875 19.9686ZM2.27047 37.4526C8.54429 31.1502 13.5305 24.0561 17.4789 19.9579ZM2.27047 37.4526C6.37574 31.9135 11.3905 25.6468 17.4789 19.9579ZM2.31684 41.7469C6.90004 36.6251 11.4333 30.5938 21.2703 19.9437ZM2.31684 41.7469C6.69674 36.7856 10.3669 31.8814 21.2703 19.9437ZM2.3632 46.0448C10.1493 36.8641 20.6283 27.3196 25.0617 19.933ZM2.3632 46.0448C9.33966 37.4455 16.3589 29.9946 25.0617 19.933ZM2.17773 50.6066C12.9634 37.663 22.1049 27.1341 28.8531 19.9187ZM2.17773 50.6066C11.4761 40.6091 19.84 30.9041 28.8531 19.9187ZM2.2241 54.9009C11.2621 47.796 17.5038 36.9105 32.4091 20.1755ZM2.2241 54.9009C11.2443 43.9368 20.532 33.1833 32.4091 20.1755ZM2.27404 59.1952C14.2581 45.2173 24.3483 33.9715 36.2005 20.1648ZM2.27404 59.1952C10.777 48.6021 20.8672 38.6474 36.2005 20.1648ZM3.49028 62.1448C13.42 50.0716 20.3679 40.5414 39.9919 20.1541ZM3.49028 62.1448C18.0602 47.4607 30.3404 31.942 39.9919 20.1541ZM4.23929 65.6331C18.1779 50.7171 31.4746 35.7905 43.7868 20.1398ZM4.23929 65.6331C16.1592 52.5647 29.2632 38.9185 43.7868 20.1398ZM4.98829 69.1177C12.6103 58.0503 22.8539 49.6222 46.8756 20.9352ZM4.98829 69.1177C18.7094 53.1068 31.9311 38.0268 46.8756 20.9352ZM7.37798 70.7228C18.2564 57.7364 31.1037 45.4456 50.1962 21.4631ZM7.37798 70.7228C16.4267 60.1154 25.1687 50.6886 50.1962 21.4631ZM9.5287 72.5953C22.2368 57.394 37.9089 40.9729 52.1186 23.6031ZM9.5287 72.5953C22.6042 57.2727 34.542 43.0808 52.1186 23.6031ZM13.5555 72.3135C26.31 57.904 41.2188 41.8111 54.2694 25.4756ZM13.5555 72.3135C26.845 59.1631 38.0444 45.7487 54.2694 25.4756ZM17.3469 72.2992C28.3537 57.2906 42.0748 43.3376 55.0219 28.9603ZM17.3469 72.2992C25.3292 62.5086 32.9334 52.4256 55.0219 28.9603ZM21.1383 72.2885C31.628 60.0619 41.0619 50.6351 55.7709 32.4485ZM21.1383 72.2885C30.4545 61.8631 39.2464 51.2949 55.7709 32.4485ZM24.9297 72.2743C33.9249 63.518 41.7824 52.8643 55.8173 36.7428ZM24.9297 72.2743C35.1233 60.8929 45.5845 49.2013 55.8173 36.7428ZM28.7211 72.2636C34.278 65.3156 40.6339 56.7805 55.8637 41.0371ZM28.7211 72.2636C36.9102 61.1818 46.0731 51.2593 55.8637 41.0371ZM32.5125 72.2493C38.3369 65.9505 43.2661 60.5826 55.9136 45.3314ZM32.5125 72.2493C38.4939 65.9755 44.2862 59.3521 55.9136 45.3314ZM36.3039 72.2386C39.9063 65.2835 46.1765 59.3771 55.7246 49.8968ZM36.3039 72.2386C41.1903 65.5582 47.0147 60.094 55.7246 49.8968ZM40.0953 72.2279C45.6808 66.3286 52.7392 60.1368 55.7745 54.1911ZM40.0953 72.2279C45.72 66.5854 50.7847 60.1368 55.7745 54.1911ZM43.6513 72.4847C46.3549 69.5707 50.3424 65.0695 54.1838 60.3686ZM43.6513 72.4847C46.6295 69.7241 49.2047 66.7067 54.1838 60.3686ZM49.5506 70.0487C50.9452 68.8574 51.9118 67.4735 52.8248 66.2786ZM49.5506 70.0487C50.1249 69.1463 51.1021 67.8444 52.8248 66.2786Z" stroke="url(#paint1_linear_430_280)" stroke-linecap="round"/>
<path d="M12.8425 20.9416C18.8916 19.2438 27.1236 19.0548 42.4497 20.9416M12.8425 20.9416C21.531 19.9857 30.9328 20.8881 42.4497 20.9416M12.8425 20.9416C6.34756 20.296 0.98681 26.0491 1.42908 32.355M12.8425 20.9416C4.70688 19.8074 0.594473 25.9991 1.42908 32.355M42.4497 20.9416C49.205 21.58 53.2568 25.8422 53.8631 32.355M42.4497 20.9416C48.5309 21.5301 52.5791 24.7401 53.8631 32.355M53.8631 32.355C54.0842 43.5402 52.893 54.5006 53.8631 61.9622M53.8631 32.355C52.7824 40.5192 53.1284 47.6419 53.8631 61.9622M53.8631 61.9622C54.4231 70.1549 51.1631 72.7051 42.4497 73.3756M53.8631 61.9622C54.3517 70.8896 50.2786 74.4706 42.4497 73.3756M42.4497 73.3756C34.7064 71.6778 24.3772 72.2735 12.8425 73.3756M42.4497 73.3756C31.6247 74.0033 20.2398 73.7572 12.8425 73.3756M12.8425 73.3756C5.05285 72.1665 2.66316 70.8682 1.42908 61.9622M12.8425 73.3756C5.39168 74.8879 0.740708 70.0407 1.42908 61.9622M1.42908 61.9622C0.972543 51.4796 1.93555 40.4264 1.42908 32.355M1.42908 61.9622C0.829876 53.0561 1.04388 43.1764 1.42908 32.355" stroke="#0541FB" stroke-width="2" stroke-linecap="round"/>
<path d="M22.755 36.3658C25.1813 35.2674 28.5648 35.0821 31.172 35.9379C33.7747 36.7893 36.9024 39.1053 38.389 41.4786C39.8713 43.8564 40.4359 47.2973 40.083 50.1912C39.7257 53.085 38.2611 56.8656 36.2495 58.8552C34.2379 60.8447 30.9205 62.1108 28.0046 62.124C25.0931 62.1417 21.0831 60.7388 18.7671 58.9478C16.4511 57.1568 14.5983 54.1261 14.1087 51.3867C13.619 48.6428 13.9234 45.1445 15.8335 42.4933C17.7481 39.8464 23.452 36.6437 25.5783 35.4835C27.7046 34.3233 28.6487 35.3247 28.6045 35.5277M33.2718 36.732C35.7819 37.7775 38.5964 40.367 39.8139 42.9918C41.0315 45.6121 41.3844 49.675 40.5727 52.463C39.761 55.251 37.52 58.1052 34.9481 59.7154C32.3763 61.33 27.9605 62.5166 25.146 62.1372C22.3315 61.7623 19.9406 59.6933 18.0613 57.4612C16.182 55.2246 14.1131 51.5278 13.866 48.731C13.619 45.9342 14.9248 42.8374 16.5791 40.6802C18.2333 38.523 21.0566 36.5202 23.7917 35.7879C26.5268 35.06 31.5073 36.0482 32.9895 36.2908C34.4673 36.5335 32.6675 37.0496 32.6719 37.2437" stroke="#0541FB" stroke-width="2" stroke-linecap="round"/>
<path d="M41.6476 28.4783C42.2599 28.201 43.1139 28.1543 43.7719 28.3703C44.4288 28.5852 45.2182 29.1697 45.5934 29.7687C45.9675 30.3688 46.1101 31.2373 46.021 31.9677C45.9308 32.698 45.5612 33.6522 45.0535 34.1544C44.5457 34.6565 43.7085 34.976 42.9725 34.9794C42.2377 34.9838 41.2256 34.6298 40.6411 34.1777C40.0565 33.7257 39.5889 32.9608 39.4653 32.2694C39.3417 31.5769 39.4186 30.6939 39.9007 30.0248C40.3839 29.3567 41.8235 28.5484 42.3601 28.2556C42.8968 27.9628 43.1351 28.2155 43.1239 28.2667M44.3019 28.5707C44.9354 28.8346 45.6458 29.4881 45.9531 30.1506C46.2604 30.8119 46.3494 31.8374 46.1446 32.5411C45.9397 33.2447 45.3741 33.9651 44.725 34.3715C44.0759 34.779 42.9614 35.0785 42.251 34.9827C41.5407 34.8881 40.9372 34.3659 40.4629 33.8025C39.9886 33.238 39.4664 32.305 39.4041 31.5991C39.3417 30.8932 39.6713 30.1116 40.0888 29.5672C40.5063 29.0227 41.2189 28.5172 41.9092 28.3324C42.5995 28.1487 43.8566 28.3981 44.2307 28.4593C44.6036 28.5206 44.1494 28.6508 44.1505 28.6998" stroke="#0541FB" stroke-width="2" stroke-linecap="round"/>
<path d="M48.9103 5.77938L49.1323 14.8667M55.063 15.9561L62.0032 7.00248M61.7049 20.8957L69.3429 18.6108" stroke="#0541FB" stroke-width="3" stroke-linecap="round"/>
<defs>
<linearGradient id="paint0_linear_430_280" x1="50.0465" y1="23.8565" x2="4.03742" y2="69.4396" gradientUnits="userSpaceOnUse">
<stop stop-color="#8F4DB8"/>
<stop offset="0.484" stop-color="#DE3F76"/>
<stop offset="1" stop-color="#EB9668"/>
</linearGradient>
<linearGradient id="paint1_linear_430_280" x1="50.0465" y1="22.1524" x2="4.03742" y2="67.7355" gradientUnits="userSpaceOnUse">
<stop stop-color="#8F4DB8"/>
<stop offset="0.484" stop-color="#DE3F76"/>
<stop offset="1" stop-color="#EB9668"/>
</linearGradient>
</defs>
</svg>
