<svg width="119" height="95" viewBox="0 0 119 95" fill="none" xmlns="http://www.w3.org/2000/svg">
<path d="M53.4081 40.1333L22.2331 22.2167L20.4415 20.425L18.2915 18.9917L13.6331 17.5583L10.0498 23.65L12.9165 30.8167L45.8831 52.675C52.9343 51.7129 53.3982 49.3981 53.4081 40.1333Z" fill="#548EF0"/>
<path d="M62.7247 13.975L93.8997 31.8917L95.6913 33.6834L97.8413 35.1167L102.5 36.55L106.083 30.4584L103.216 23.2917L70.2497 1.43338C63.1985 2.39548 62.7346 4.71028 62.7247 13.975Z" fill="#48AD47"/>
<path d="M45.8833 4.30005L16.5 18.275L30.8333 26.5167L49.4667 17.5584L53.05 9.67505L45.8833 4.30005Z" fill="#E9564B"/>
<path d="M69.8921 50.1667L99.2754 36.1917L84.9421 27.9501L66.3087 36.9084L62.7254 44.7917L69.8921 50.1667Z" fill="#F7BF21"/>
<path d="M21.6828 20.4432C25.0495 22.6442 47.491 36.3358 50.7703 39.8919C54.0496 43.448 52.2793 45.9279 51.1415 47.8397C50.0006 49.7439 48.7895 53.0876 43.9373 51.3475C39.0851 49.6074 15.6964 35.7611 12.2485 31.3469C8.8007 26.9328 12.1093 20.6961 13.4731 18.8064C14.8313 16.9131 19.1021 19.7344 20.4145 19.9978M20.5386 21.0263C23.9122 23.0051 46.9354 35.1685 50.587 38.8096C54.2416 42.4581 53.2738 47.0235 52.2423 48.9506C51.219 50.8772 49.5955 52.3899 44.4393 50.381C39.2801 48.3646 14.9103 35.1125 11.5164 30.8225C8.12253 26.5326 12.7568 20.4884 14.3019 18.5928C15.8501 16.7048 19.6595 19.2497 20.7854 19.4648" stroke="black" stroke-linecap="round"/>
<path d="M43.3257 5.14346C48.0307 4.01971 49.3294 6.77596 50.4416 8.70281C51.5456 10.6286 53.8713 13.319 49.9823 16.7024C47.9077 18.5073 40.25 23.2313 32.7158 27.3758L31.9082 27.1585C39.4253 22.7065 47.1112 17.6597 49.3843 15.7922C53.6564 12.2749 53.1297 10.1193 51.9487 8.2851C50.7712 6.44356 47.2608 3.36853 42.2918 4.77454C38.633 5.81226 25.7817 13.7784 17.9332 18.682L17.0487 18.3549C25.0825 13.9613 39.6774 6.01482 43.3257 5.14346Z" stroke="black" stroke-linecap="round"/>
<path d="M94.1511 34.8479C90.7845 32.647 68.343 18.9554 65.0637 15.3992C61.7844 11.8431 63.5547 9.36324 64.6925 7.45147C65.8334 5.54724 67.0445 2.20357 71.8967 3.94368C76.7489 5.68379 100.138 19.53 103.585 23.9442C107.033 28.3584 103.725 34.595 102.361 36.4848C101.003 38.378 96.7319 35.5568 95.4195 35.2934M95.2954 34.2649C91.9217 32.286 68.8985 20.1226 65.247 16.4816C61.5924 12.833 62.5602 8.26766 63.5917 6.34052C64.615 4.41398 66.2385 2.90122 71.3947 4.91012C76.5539 6.92655 100.924 20.1787 104.318 24.4686C107.711 28.7585 103.077 34.8027 101.532 36.6983C99.9838 38.5863 96.1745 36.0415 95.0486 35.8263" stroke="black" stroke-linecap="round"/>
<path d="M72.5083 50.1477C67.8033 51.2714 66.5045 48.5152 65.3924 46.5883C64.2884 44.6625 61.9627 41.9721 65.8517 38.5887C67.9263 36.7838 75.584 32.0598 83.1182 27.9153L83.9258 28.1326C76.4087 32.5846 68.7228 37.6315 66.4497 39.499C62.1776 43.0163 62.7043 45.1719 63.8852 47.006C65.0627 48.8476 68.5732 51.9226 73.5422 50.5166C77.201 49.4789 90.0523 41.5127 97.9008 36.6092L98.7853 36.9362C90.7515 41.3298 76.1566 49.2763 72.5083 50.1477Z" stroke="black" stroke-linecap="round"/>
<path d="M11.2188 61.9219C11.3281 61.8542 11.4401 61.8073 11.5547 61.7812C11.6693 61.7552 11.776 61.7422 11.875 61.7422C12.0052 61.7422 12.1224 61.7656 12.2266 61.8125C12.3307 61.8542 12.4193 61.9089 12.4922 61.9766C12.5651 62.0443 12.6198 62.1224 12.6562 62.2109C12.6979 62.2943 12.7188 62.3776 12.7188 62.4609C12.7188 62.5755 12.6797 62.6849 12.6016 62.7891C12.5286 62.8932 12.4245 62.9818 12.2891 63.0547C12.0182 63.2109 11.7917 63.3438 11.6094 63.4531C11.4271 63.5625 11.2708 63.6615 11.1406 63.75C11.0156 63.8385 10.9062 63.9219 10.8125 64C10.7188 64.0781 10.625 64.1641 10.5312 64.2578C10.3958 64.3828 10.2656 64.526 10.1406 64.6875C10.0156 64.849 9.90365 65.0104 9.80469 65.1719C9.71094 65.3281 9.63281 65.4792 9.57031 65.625C9.51302 65.7708 9.48438 65.8906 9.48438 65.9844C9.48438 66.0625 9.50521 66.125 9.54688 66.1719C9.58854 66.2188 9.64844 66.2422 9.72656 66.2422C9.8099 66.2422 9.90104 66.2135 10 66.1562C10.3177 65.9792 10.651 65.8203 11 65.6797C11.3542 65.5391 11.7109 65.4193 12.0703 65.3203C12.4297 65.2214 12.7891 65.1484 13.1484 65.1016C13.5078 65.0495 13.8568 65.0234 14.1953 65.0234C14.7318 65.0234 15.224 65.0833 15.6719 65.2031C16.1198 65.3177 16.5052 65.4792 16.8281 65.6875C17.151 65.8958 17.401 66.1484 17.5781 66.4453C17.7552 66.737 17.8438 67.0573 17.8438 67.4062C17.8438 67.7969 17.7318 68.1719 17.5078 68.5312C17.2839 68.8906 16.9766 69.2057 16.5859 69.4766C16.1953 69.7474 15.7344 69.9635 15.2031 70.125C14.6719 70.2865 14.099 70.3672 13.4844 70.3672C12.6667 70.3672 11.9167 70.2812 11.2344 70.1094C10.5573 69.9427 9.97396 69.7083 9.48438 69.4062C9 69.1042 8.6224 68.7448 8.35156 68.3281C8.08594 67.9062 7.95312 67.4453 7.95312 66.9453C7.95312 66.4505 8.02083 65.9661 8.15625 65.4922C8.29688 65.013 8.5026 64.5599 8.77344 64.1328C9.04948 63.7005 9.39062 63.2995 9.79688 62.9297C10.2031 62.5547 10.6771 62.2188 11.2188 61.9219ZM16.2734 67.6797C16.2734 67.5026 16.2161 67.3411 16.1016 67.1953C15.9922 67.0495 15.8359 66.9245 15.6328 66.8203C15.4349 66.7161 15.1927 66.6354 14.9062 66.5781C14.625 66.5208 14.3125 66.4922 13.9688 66.4922C13.3177 66.4922 12.6797 66.5833 12.0547 66.7656C11.4349 66.9427 10.8516 67.2005 10.3047 67.5391C10.1745 67.6224 10.1094 67.724 10.1094 67.8438C10.1094 67.9271 10.1562 68.013 10.25 68.1016C10.3438 68.1849 10.4714 68.2656 10.6328 68.3438C10.7943 68.4219 10.9844 68.4974 11.2031 68.5703C11.4219 68.6432 11.6536 68.7057 11.8984 68.7578C12.1432 68.8099 12.3958 68.8516 12.6562 68.8828C12.9167 68.9141 13.1719 68.9297 13.4219 68.9297C13.8229 68.9297 14.1953 68.8984 14.5391 68.8359C14.888 68.7682 15.1901 68.6797 15.4453 68.5703C15.7057 68.4557 15.9089 68.3229 16.0547 68.1719C16.2005 68.0208 16.2734 67.8568 16.2734 67.6797ZM17.3125 64.0312C17.2448 64.0417 17.1875 64.0495 17.1406 64.0547C17.0938 64.0599 17.0547 64.0625 17.0234 64.0625C16.8464 64.0521 16.7214 64.0026 16.6484 63.9141C16.5755 63.8203 16.5391 63.6667 16.5391 63.4531C16.5391 63.0312 16.7422 62.7656 17.1484 62.6562C17.5078 62.5729 17.8932 62.513 18.3047 62.4766C18.7161 62.4349 19.1745 62.4141 19.6797 62.4141C20.3568 62.4141 21.0286 62.4792 21.6953 62.6094C22.3672 62.7396 23.0052 62.9193 23.6094 63.1484C24.2188 63.3724 24.7839 63.6406 25.3047 63.9531C25.8255 64.2604 26.276 64.5964 26.6562 64.9609C27.0417 65.3203 27.3411 65.7005 27.5547 66.1016C27.7734 66.4974 27.8828 66.8958 27.8828 67.2969C27.8828 67.7031 27.7448 68.0911 27.4688 68.4609C27.1979 68.8255 26.8307 69.1484 26.3672 69.4297C25.9036 69.7109 25.3672 69.9349 24.7578 70.1016C24.1484 70.2682 23.5104 70.3516 22.8438 70.3516C22.3125 70.3516 21.7578 70.3021 21.1797 70.2031C20.6016 70.1042 19.9635 69.9453 19.2656 69.7266C18.9427 69.638 18.7812 69.4401 18.7812 69.1328C18.7812 69.0651 18.7969 69.0026 18.8281 68.9453C18.8594 68.888 18.8906 68.8333 18.9219 68.7812C18.9583 68.7292 18.9922 68.6797 19.0234 68.6328C19.0547 68.5807 19.0703 68.5286 19.0703 68.4766C19.0703 68.1797 19.0547 67.862 19.0234 67.5234C18.9974 67.1849 18.9583 66.8464 18.9062 66.5078C18.8594 66.1693 18.8021 65.8464 18.7344 65.5391C18.6719 65.2266 18.6068 64.9505 18.5391 64.7109C18.4714 64.4714 18.401 64.2812 18.3281 64.1406C18.2604 63.9948 18.1979 63.9219 18.1406 63.9219C18.0521 63.9219 17.9427 63.9323 17.8125 63.9531C17.6875 63.974 17.5208 64 17.3125 64.0312ZM20.3203 63.9062C20.1693 63.9062 20.0938 63.9583 20.0938 64.0625C20.0938 64.0885 20.1016 64.1328 20.1172 64.1953C20.1328 64.2578 20.1562 64.3568 20.1875 64.4922C20.2344 64.7109 20.2786 64.9453 20.3203 65.1953C20.362 65.4453 20.4036 65.7266 20.4453 66.0391C20.487 66.3464 20.526 66.6927 20.5625 67.0781C20.6042 67.4583 20.6458 67.888 20.6875 68.3672C20.6927 68.4453 20.763 68.5208 20.8984 68.5938C21.0339 68.6615 21.2135 68.724 21.4375 68.7812C21.6615 68.8333 21.9167 68.8776 22.2031 68.9141C22.4948 68.9453 22.7943 68.9609 23.1016 68.9609C23.5078 68.9609 23.8958 68.9141 24.2656 68.8203C24.6406 68.7214 24.9688 68.5911 25.25 68.4297C25.5365 68.2682 25.763 68.0807 25.9297 67.8672C26.1016 67.6536 26.1875 67.4323 26.1875 67.2031C26.1875 66.8229 26.0365 66.4531 25.7344 66.0938C25.4375 65.7344 25.026 65.4089 24.5 65.1172C23.974 64.8203 23.3542 64.5677 22.6406 64.3594C21.9271 64.1458 21.1536 63.9948 20.3203 63.9062ZM31.75 61.9219C31.8594 61.8542 31.9714 61.8073 32.0859 61.7812C32.2005 61.7552 32.3073 61.7422 32.4062 61.7422C32.5365 61.7422 32.6536 61.7656 32.7578 61.8125C32.862 61.8542 32.9505 61.9089 33.0234 61.9766C33.0964 62.0443 33.151 62.1224 33.1875 62.2109C33.2292 62.2943 33.25 62.3776 33.25 62.4609C33.25 62.5755 33.2109 62.6849 33.1328 62.7891C33.0599 62.8932 32.9557 62.9818 32.8203 63.0547C32.5495 63.2109 32.3229 63.3438 32.1406 63.4531C31.9583 63.5625 31.8021 63.6615 31.6719 63.75C31.5469 63.8385 31.4375 63.9219 31.3438 64C31.25 64.0781 31.1562 64.1641 31.0625 64.2578C30.9271 64.3828 30.7969 64.526 30.6719 64.6875C30.5469 64.849 30.4349 65.0104 30.3359 65.1719C30.2422 65.3281 30.1641 65.4792 30.1016 65.625C30.0443 65.7708 30.0156 65.8906 30.0156 65.9844C30.0156 66.0625 30.0365 66.125 30.0781 66.1719C30.1198 66.2188 30.1797 66.2422 30.2578 66.2422C30.3411 66.2422 30.4323 66.2135 30.5312 66.1562C30.849 65.9792 31.1823 65.8203 31.5312 65.6797C31.8854 65.5391 32.2422 65.4193 32.6016 65.3203C32.9609 65.2214 33.3203 65.1484 33.6797 65.1016C34.0391 65.0495 34.388 65.0234 34.7266 65.0234C35.263 65.0234 35.7552 65.0833 36.2031 65.2031C36.651 65.3177 37.0365 65.4792 37.3594 65.6875C37.6823 65.8958 37.9323 66.1484 38.1094 66.4453C38.2865 66.737 38.375 67.0573 38.375 67.4062C38.375 67.7969 38.263 68.1719 38.0391 68.5312C37.8151 68.8906 37.5078 69.2057 37.1172 69.4766C36.7266 69.7474 36.2656 69.9635 35.7344 70.125C35.2031 70.2865 34.6302 70.3672 34.0156 70.3672C33.1979 70.3672 32.4479 70.2812 31.7656 70.1094C31.0885 69.9427 30.5052 69.7083 30.0156 69.4062C29.5312 69.1042 29.1536 68.7448 28.8828 68.3281C28.6172 67.9062 28.4844 67.4453 28.4844 66.9453C28.4844 66.4505 28.5521 65.9661 28.6875 65.4922C28.8281 65.013 29.0339 64.5599 29.3047 64.1328C29.5807 63.7005 29.9219 63.2995 30.3281 62.9297C30.7344 62.5547 31.2083 62.2188 31.75 61.9219ZM36.8047 67.6797C36.8047 67.5026 36.7474 67.3411 36.6328 67.1953C36.5234 67.0495 36.3672 66.9245 36.1641 66.8203C35.9661 66.7161 35.724 66.6354 35.4375 66.5781C35.1562 66.5208 34.8438 66.4922 34.5 66.4922C33.849 66.4922 33.2109 66.5833 32.5859 66.7656C31.9661 66.9427 31.3828 67.2005 30.8359 67.5391C30.7057 67.6224 30.6406 67.724 30.6406 67.8438C30.6406 67.9271 30.6875 68.013 30.7812 68.1016C30.875 68.1849 31.0026 68.2656 31.1641 68.3438C31.3255 68.4219 31.5156 68.4974 31.7344 68.5703C31.9531 68.6432 32.1849 68.7057 32.4297 68.7578C32.6745 68.8099 32.9271 68.8516 33.1875 68.8828C33.4479 68.9141 33.7031 68.9297 33.9531 68.9297C34.3542 68.9297 34.7266 68.8984 35.0703 68.8359C35.4193 68.7682 35.7214 68.6797 35.9766 68.5703C36.237 68.4557 36.4401 68.3229 36.5859 68.1719C36.7318 68.0208 36.8047 67.8568 36.8047 67.6797ZM42.5 67.4062C42.5 67.3177 42.5104 67.2188 42.5312 67.1094C42.5521 67 42.5625 66.8802 42.5625 66.75C42.5625 66.6615 42.5234 66.5938 42.4453 66.5469C42.3724 66.5 42.2891 66.4479 42.1953 66.3906C42.1016 66.3333 42.0156 66.2604 41.9375 66.1719C41.8646 66.0833 41.8281 65.9557 41.8281 65.7891C41.8281 65.6693 41.8594 65.5495 41.9219 65.4297C41.9896 65.3099 42.0859 65.2005 42.2109 65.1016C42.5182 64.8724 42.8359 64.6667 43.1641 64.4844C43.4974 64.3021 43.8281 64.1484 44.1562 64.0234C44.4896 63.8984 44.8177 63.8021 45.1406 63.7344C45.4635 63.6667 45.7734 63.6328 46.0703 63.6328C46.5703 63.6328 47.0391 63.7266 47.4766 63.9141C47.9193 64.0964 48.3021 64.349 48.625 64.6719C48.9531 64.9896 49.2109 65.3646 49.3984 65.7969C49.5911 66.224 49.6875 66.6823 49.6875 67.1719C49.6875 67.651 49.5859 68.1068 49.3828 68.5391C49.1849 68.9661 48.9167 69.3411 48.5781 69.6641C48.2396 69.987 47.8411 70.2422 47.3828 70.4297C46.9297 70.6224 46.4505 70.7188 45.9453 70.7188C45.4505 70.7188 44.9922 70.6354 44.5703 70.4688C44.1484 70.3021 43.7839 70.0729 43.4766 69.7812C43.1693 69.4844 42.9297 69.1354 42.7578 68.7344C42.5859 68.3281 42.5 67.8854 42.5 67.4062ZM46.1172 69.3125C46.3359 69.3125 46.5625 69.2682 46.7969 69.1797C47.0312 69.0911 47.2448 68.9635 47.4375 68.7969C47.6354 68.625 47.7969 68.4167 47.9219 68.1719C48.0521 67.9271 48.1172 67.651 48.1172 67.3438C48.1172 67.0312 48.0599 66.7396 47.9453 66.4688C47.8307 66.1979 47.6719 65.9635 47.4688 65.7656C47.2708 65.5625 47.0339 65.4036 46.7578 65.2891C46.487 65.1745 46.1927 65.1172 45.875 65.1172C45.2969 65.1172 44.8542 65.2682 44.5469 65.5703C44.2396 65.8672 44.0859 66.3255 44.0859 66.9453C44.0859 67.2839 44.1354 67.599 44.2344 67.8906C44.3385 68.1771 44.4818 68.4271 44.6641 68.6406C44.8464 68.849 45.0599 69.013 45.3047 69.1328C45.5547 69.2526 45.8255 69.3125 46.1172 69.3125ZM50.8438 63.6953C50.8438 63.6172 50.8776 63.5417 50.9453 63.4688C51.013 63.3906 51.1016 63.3229 51.2109 63.2656C51.3203 63.2031 51.4427 63.1536 51.5781 63.1172C51.7188 63.0755 51.8594 63.0547 52 63.0547C52.0781 63.0547 52.1432 63.0755 52.1953 63.1172C52.2526 63.1589 52.3021 63.2396 52.3438 63.3594C52.3854 63.474 52.4219 63.638 52.4531 63.8516C52.4896 64.0599 52.5234 64.3333 52.5547 64.6719C52.5755 64.776 52.5938 64.8568 52.6094 64.9141C52.6302 64.9661 52.6562 64.9922 52.6875 64.9922C52.7344 64.9922 52.7812 64.9115 52.8281 64.75C53.2083 63.651 53.7578 63.1016 54.4766 63.1016C54.8099 63.1016 55.112 63.2057 55.3828 63.4141C55.6589 63.6224 55.9141 63.9635 56.1484 64.4375C56.388 64.9062 56.6146 65.526 56.8281 66.2969C57.0417 67.0625 57.2552 68.0078 57.4688 69.1328C57.4792 69.1901 57.487 69.2422 57.4922 69.2891C57.4974 69.3359 57.5 69.3802 57.5 69.4219C57.5 69.5417 57.4714 69.6458 57.4141 69.7344C57.362 69.8177 57.2917 69.888 57.2031 69.9453C57.1146 69.9974 57.0156 70.0365 56.9062 70.0625C56.7969 70.0938 56.6875 70.1094 56.5781 70.1094C56.3594 70.1094 56.2005 70.0859 56.1016 70.0391C56.0078 69.9922 55.9479 69.9036 55.9219 69.7734C55.7708 68.9818 55.6224 68.2786 55.4766 67.6641C55.3359 67.0495 55.1953 66.5339 55.0547 66.1172C54.9193 65.6953 54.7839 65.375 54.6484 65.1562C54.513 64.9375 54.3776 64.8281 54.2422 64.8281C54.1068 64.8281 53.9792 64.9141 53.8594 65.0859C53.7448 65.2526 53.6328 65.5156 53.5234 65.875C53.4141 66.2344 53.3073 66.6901 53.2031 67.2422C53.1042 67.7943 53.0078 68.4531 52.9141 69.2188C52.888 69.4271 52.7839 69.5938 52.6016 69.7188C52.4193 69.8438 52.1875 69.9062 51.9062 69.9062C51.7188 69.9062 51.5755 69.8672 51.4766 69.7891C51.3776 69.7109 51.3229 69.6042 51.3125 69.4688C51.2656 68.3854 51.2135 67.4948 51.1562 66.7969C51.1042 66.0938 51.0547 65.5312 51.0078 65.1094C50.9609 64.6823 50.9219 64.3646 50.8906 64.1562C50.8594 63.9479 50.8438 63.7943 50.8438 63.6953ZM65.4062 63.1875C65.1146 63.1875 64.8438 63.2578 64.5938 63.3984C64.349 63.5339 64.1328 63.724 63.9453 63.9688C63.763 64.2083 63.6198 64.4922 63.5156 64.8203C63.4115 65.1484 63.3594 65.5 63.3594 65.875C63.3594 66.2604 63.4453 66.6172 63.6172 66.9453C63.7943 67.2682 64.0365 67.5521 64.3438 67.7969C64.6562 68.0365 65.0208 68.224 65.4375 68.3594C65.8594 68.4948 66.3177 68.5625 66.8125 68.5625C67.1719 68.5625 67.5104 68.5312 67.8281 68.4688C68.151 68.401 68.4323 68.3125 68.6719 68.2031C68.9115 68.0938 69.1016 67.9661 69.2422 67.8203C69.3828 67.6693 69.4531 67.5104 69.4531 67.3438C69.4531 67.2135 69.4297 67.1068 69.3828 67.0234C69.3359 66.9349 69.2812 66.8568 69.2188 66.7891C69.1615 66.7161 69.1094 66.6458 69.0625 66.5781C69.0156 66.5052 68.9922 66.4141 68.9922 66.3047C68.9922 66.2005 69.0182 66.1016 69.0703 66.0078C69.1224 65.9141 69.1927 65.8307 69.2812 65.7578C69.375 65.6849 69.4792 65.6276 69.5938 65.5859C69.7135 65.5443 69.8359 65.5234 69.9609 65.5234C70.112 65.5234 70.2526 65.5625 70.3828 65.6406C70.5182 65.7188 70.6328 65.8281 70.7266 65.9688C70.8255 66.1042 70.901 66.2656 70.9531 66.4531C71.0104 66.6354 71.0391 66.8307 71.0391 67.0391C71.0391 67.4609 70.9271 67.8542 70.7031 68.2188C70.4792 68.5781 70.1693 68.888 69.7734 69.1484C69.3776 69.4089 68.9089 69.6146 68.3672 69.7656C67.8255 69.9115 67.237 69.9844 66.6016 69.9844C65.8984 69.9844 65.25 69.8906 64.6562 69.7031C64.0625 69.5104 63.5495 69.2448 63.1172 68.9062C62.6901 68.5677 62.3568 68.1667 62.1172 67.7031C61.8776 67.2396 61.7578 66.7318 61.7578 66.1797C61.7578 65.5755 61.862 65.0052 62.0703 64.4688C62.2839 63.9323 62.5729 63.4635 62.9375 63.0625C63.3021 62.6615 63.7266 62.3438 64.2109 62.1094C64.7005 61.875 65.2214 61.7578 65.7734 61.7578C66.0182 61.7578 66.2422 61.7865 66.4453 61.8438C66.6536 61.8958 66.8333 61.9714 66.9844 62.0703C67.1354 62.1693 67.2526 62.2865 67.3359 62.4219C67.4245 62.5521 67.4688 62.6953 67.4688 62.8516C67.4688 62.9766 67.4401 63.0964 67.3828 63.2109C67.3307 63.3203 67.2604 63.4193 67.1719 63.5078C67.0833 63.5911 66.9792 63.6589 66.8594 63.7109C66.7448 63.763 66.6224 63.7891 66.4922 63.7891C66.3568 63.7891 66.2474 63.7578 66.1641 63.6953C66.0859 63.6328 66.013 63.5651 65.9453 63.4922C65.8776 63.4141 65.8047 63.3438 65.7266 63.2812C65.6484 63.2188 65.5417 63.1875 65.4062 63.1875ZM75.6953 63.1719C75.9818 63.1719 76.2578 63.2161 76.5234 63.3047C76.7891 63.3932 77.0234 63.5156 77.2266 63.6719C77.4297 63.8281 77.5911 64.0156 77.7109 64.2344C77.8359 64.4531 77.8984 64.6953 77.8984 64.9609C77.8984 65.0703 77.8724 65.1771 77.8203 65.2812C77.7734 65.3802 77.7083 65.4688 77.625 65.5469C77.5417 65.6198 77.4453 65.6797 77.3359 65.7266C77.2318 65.7682 77.1224 65.7891 77.0078 65.7891C76.9974 65.7891 76.987 65.7917 76.9766 65.7969C76.9714 65.7969 76.9635 65.7969 76.9531 65.7969C76.9427 65.8021 76.9323 65.8047 76.9219 65.8047L76.9531 66.4297C76.974 67.1745 77.0781 67.7188 77.2656 68.0625C77.4583 68.4062 77.7083 68.5781 78.0156 68.5781C78.125 68.5781 78.2214 68.5677 78.3047 68.5469C78.3932 68.526 78.474 68.5026 78.5469 68.4766C78.625 68.4453 78.6979 68.4193 78.7656 68.3984C78.8333 68.3776 78.901 68.3672 78.9688 68.3672C79.0885 68.3672 79.1927 68.4193 79.2812 68.5234C79.375 68.6276 79.4219 68.7526 79.4219 68.8984C79.4219 69.0443 79.3646 69.1901 79.25 69.3359C79.1406 69.4818 78.9948 69.6146 78.8125 69.7344C78.6302 69.849 78.4245 69.9427 78.1953 70.0156C77.9661 70.0885 77.7344 70.125 77.5 70.125C77.0938 70.125 76.737 69.9583 76.4297 69.625C76.1224 69.2865 75.9036 68.7917 75.7734 68.1406C75.7422 68.0365 75.7005 67.9844 75.6484 67.9844C75.5859 67.9844 75.5312 68.0156 75.4844 68.0781C74.9688 68.7292 74.4193 69.2188 73.8359 69.5469C73.2526 69.8698 72.6771 70.0312 72.1094 70.0312C71.8438 70.0312 71.6042 69.9922 71.3906 69.9141C71.1771 69.8359 70.9948 69.7266 70.8438 69.5859C70.6979 69.4401 70.5833 69.2656 70.5 69.0625C70.4219 68.8542 70.3828 68.6224 70.3828 68.3672C70.3828 68.0078 70.4609 67.6302 70.6172 67.2344C70.7786 66.8385 70.9948 66.4479 71.2656 66.0625C71.5365 65.6771 71.849 65.3099 72.2031 64.9609C72.5625 64.612 72.9375 64.3047 73.3281 64.0391C73.724 63.7734 74.125 63.5625 74.5312 63.4062C74.9375 63.25 75.3255 63.1719 75.6953 63.1719ZM75.4375 65.875C75.5312 65.6979 75.6172 65.5703 75.6953 65.4922C75.7734 65.4089 75.8854 65.3542 76.0312 65.3281C76.1458 65.3125 76.2031 65.276 76.2031 65.2188C76.2031 65.1771 76.1875 65.1328 76.1562 65.0859C76.0573 64.9505 75.9531 64.8333 75.8438 64.7344C75.7344 64.6302 75.5885 64.5781 75.4062 64.5781C75.2083 64.5781 74.987 64.6354 74.7422 64.75C74.4974 64.8646 74.2474 65.0182 73.9922 65.2109C73.7422 65.3984 73.4948 65.6146 73.25 65.8594C73.0104 66.099 72.7969 66.3464 72.6094 66.6016C72.4219 66.8568 72.2708 67.1094 72.1562 67.3594C72.0417 67.6094 71.9844 67.8333 71.9844 68.0312C71.9844 68.2083 72.0312 68.3464 72.125 68.4453C72.224 68.5443 72.3568 68.5938 72.5234 68.5938C72.9505 68.5938 73.4167 68.3672 73.9219 67.9141C74.4271 67.4609 74.9323 66.7812 75.4375 65.875ZM80.375 70.3359C80.3385 69.6432 80.2786 69.0052 80.1953 68.4219C80.1172 67.8333 80.0339 67.3203 79.9453 66.8828C79.862 66.4453 79.7865 66.0911 79.7188 65.8203C79.6562 65.5495 79.625 65.3802 79.625 65.3125C79.625 65.2135 79.6615 65.1172 79.7344 65.0234C79.8125 64.9297 79.9089 64.849 80.0234 64.7812C80.138 64.7083 80.2604 64.651 80.3906 64.6094C80.526 64.5677 80.6484 64.5469 80.7578 64.5469C80.8464 64.5469 80.9219 64.5625 80.9844 64.5938C81.0521 64.625 81.099 64.6771 81.125 64.75C81.151 64.8385 81.1745 64.9323 81.1953 65.0312C81.2214 65.125 81.2474 65.2396 81.2734 65.375C81.3047 65.5677 81.3464 65.6641 81.3984 65.6641C81.4557 65.6641 81.5208 65.5781 81.5938 65.4062C81.6979 65.1667 81.8099 64.9688 81.9297 64.8125C82.0495 64.6562 82.1771 64.5339 82.3125 64.4453C82.4531 64.3516 82.5964 64.2865 82.7422 64.25C82.8932 64.2135 83.0495 64.1953 83.2109 64.1953C83.7005 64.1953 84.1146 64.388 84.4531 64.7734C84.7969 65.1589 85.0651 65.7161 85.2578 66.4453C85.2839 66.5286 85.3073 66.5833 85.3281 66.6094C85.349 66.6302 85.3724 66.6406 85.3984 66.6406C85.4245 66.6406 85.4505 66.6302 85.4766 66.6094C85.5078 66.5833 85.5365 66.5339 85.5625 66.4609C85.6875 66.1224 85.8333 65.8359 86 65.6016C86.1667 65.362 86.3385 65.1693 86.5156 65.0234C86.6979 64.8724 86.8828 64.763 87.0703 64.6953C87.2578 64.6276 87.4375 64.5938 87.6094 64.5938C87.9271 64.5938 88.2135 64.7109 88.4688 64.9453C88.7292 65.1745 88.9583 65.5312 89.1562 66.0156C89.3594 66.4948 89.5339 67.1042 89.6797 67.8438C89.8307 68.5781 89.9557 69.4505 90.0547 70.4609C90.0547 70.7422 89.9688 70.9375 89.7969 71.0469C89.625 71.1615 89.3906 71.2188 89.0938 71.2188C88.901 71.2188 88.75 71.1771 88.6406 71.0938C88.5312 71.0104 88.4688 70.901 88.4531 70.7656C88.3854 70.0417 88.3099 69.3984 88.2266 68.8359C88.1484 68.2682 88.0625 67.7917 87.9688 67.4062C87.875 67.0156 87.7708 66.7188 87.6562 66.5156C87.5469 66.3125 87.4245 66.2109 87.2891 66.2109C87.2214 66.2109 87.1354 66.2604 87.0312 66.3594C86.9323 66.4583 86.8255 66.6406 86.7109 66.9062C86.5964 67.1667 86.4766 67.526 86.3516 67.9844C86.2266 68.4375 86.1068 69.0182 85.9922 69.7266C85.9609 69.9245 85.8646 70.0755 85.7031 70.1797C85.5469 70.2839 85.3542 70.3359 85.125 70.3359C84.8594 70.3359 84.6745 70.2943 84.5703 70.2109C84.4714 70.1276 84.4167 69.987 84.4062 69.7891C84.3854 69.4453 84.349 69.1042 84.2969 68.7656C84.25 68.4219 84.1901 68.0964 84.1172 67.7891C84.0443 67.4766 83.9635 67.1901 83.875 66.9297C83.7865 66.6641 83.6927 66.4349 83.5938 66.2422C83.4948 66.0443 83.3932 65.8906 83.2891 65.7812C83.1849 65.6719 83.0833 65.6172 82.9844 65.6172C82.8542 65.6172 82.7266 65.7083 82.6016 65.8906C82.4818 66.0729 82.3724 66.3307 82.2734 66.6641C82.1797 66.9974 82.1042 67.3984 82.0469 67.8672C81.9896 68.3359 81.9609 68.8594 81.9609 69.4375C81.9609 69.5365 81.9635 69.6354 81.9688 69.7344C81.974 69.8281 81.9766 69.9271 81.9766 70.0312C81.9766 70.1875 81.9505 70.3151 81.8984 70.4141C81.8516 70.513 81.7812 70.5911 81.6875 70.6484C81.599 70.7057 81.4948 70.7448 81.375 70.7656C81.2552 70.7865 81.125 70.7969 80.9844 70.7969C80.8542 70.7969 80.75 70.7865 80.6719 70.7656C80.5938 70.75 80.5339 70.724 80.4922 70.6875C80.4505 70.651 80.4219 70.6016 80.4062 70.5391C80.3906 70.4818 80.3802 70.4141 80.375 70.3359ZM90.2812 64.5469C90.2812 64.3438 90.3724 64.1901 90.5547 64.0859C90.737 63.9766 90.9974 63.9219 91.3359 63.9219C91.4141 63.9219 91.4844 63.9323 91.5469 63.9531C91.6094 63.974 91.6641 64.0156 91.7109 64.0781C91.763 64.1354 91.8099 64.2161 91.8516 64.3203C91.8932 64.4245 91.9349 64.5573 91.9766 64.7188C92.0182 64.901 92.0599 64.9922 92.1016 64.9922C92.138 64.9922 92.1823 64.9167 92.2344 64.7656C92.3281 64.4688 92.4505 64.2109 92.6016 63.9922C92.7578 63.7682 92.9323 63.5833 93.125 63.4375C93.3177 63.2865 93.526 63.1745 93.75 63.1016C93.9792 63.0286 94.2188 62.9922 94.4688 62.9922C94.974 62.9922 95.4453 63.0885 95.8828 63.2812C96.3203 63.4688 96.6979 63.7318 97.0156 64.0703C97.3333 64.4036 97.5833 64.7995 97.7656 65.2578C97.9479 65.7109 98.0391 66.2031 98.0391 66.7344C98.0391 67.2969 97.9401 67.8177 97.7422 68.2969C97.5495 68.776 97.2786 69.1901 96.9297 69.5391C96.5807 69.8828 96.1641 70.151 95.6797 70.3438C95.2005 70.5417 94.6745 70.6406 94.1016 70.6406L93.7031 70.625C93.4688 70.625 93.3516 70.7578 93.3516 71.0234L93.75 74.6094C93.7448 74.6979 93.7135 74.7786 93.6562 74.8516C93.6042 74.9297 93.5312 74.9974 93.4375 75.0547C93.349 75.112 93.2422 75.1562 93.1172 75.1875C92.9974 75.2188 92.8724 75.2344 92.7422 75.2344C92.3672 75.2344 92.1641 75.112 92.1328 74.8672C92.0234 73.9193 91.901 73.0182 91.7656 72.1641C91.6354 71.3099 91.5 70.5156 91.3594 69.7812C91.224 69.0417 91.0911 68.3698 90.9609 67.7656C90.8307 67.1615 90.7135 66.6354 90.6094 66.1875C90.5104 65.7396 90.4323 65.375 90.375 65.0938C90.3125 64.8125 90.2812 64.6302 90.2812 64.5469ZM92.8203 66.6094C92.8203 66.9479 92.8333 67.2839 92.8594 67.6172C92.8854 67.9453 92.9271 68.3021 92.9844 68.6875C93.0156 68.9219 93.1432 69.0547 93.3672 69.0859C93.5026 69.1172 93.6536 69.1484 93.8203 69.1797C93.9922 69.2057 94.1354 69.2188 94.25 69.2188C94.5833 69.2188 94.8854 69.1693 95.1562 69.0703C95.4271 68.9714 95.6589 68.8307 95.8516 68.6484C96.0443 68.4609 96.1927 68.2396 96.2969 67.9844C96.401 67.7292 96.4531 67.4453 96.4531 67.1328C96.4531 66.7526 96.401 66.3984 96.2969 66.0703C96.1927 65.737 96.0495 65.4479 95.8672 65.2031C95.6901 64.9583 95.4792 64.7656 95.2344 64.625C94.9948 64.4844 94.7344 64.4141 94.4531 64.4141C94.2083 64.4141 93.9844 64.4688 93.7812 64.5781C93.5833 64.6823 93.4115 64.8307 93.2656 65.0234C93.125 65.2109 93.0156 65.4401 92.9375 65.7109C92.8594 65.9818 92.8203 66.2812 92.8203 66.6094ZM100.555 67.2344C100.555 67.9323 100.661 68.4714 100.875 68.8516C101.089 69.2318 101.398 69.4219 101.805 69.4219C102.06 69.4219 102.294 69.3464 102.508 69.1953C102.727 69.0443 102.914 68.8333 103.07 68.5625C103.227 68.2917 103.346 67.9714 103.43 67.6016C103.518 67.2266 103.562 66.8203 103.562 66.3828C103.562 66.1172 103.552 65.888 103.531 65.6953C103.51 65.4974 103.487 65.3229 103.461 65.1719C103.44 65.0156 103.419 64.8776 103.398 64.7578C103.378 64.638 103.367 64.5234 103.367 64.4141C103.367 64.2474 103.438 64.1276 103.578 64.0547C103.719 63.9766 103.943 63.9375 104.25 63.9375C104.641 63.9375 104.943 64.026 105.156 64.2031C105.375 64.3802 105.484 64.638 105.484 64.9766C105.484 65.8984 105.393 66.7266 105.211 67.4609C105.034 68.1953 104.776 68.8203 104.438 69.3359C104.104 69.8464 103.698 70.2396 103.219 70.5156C102.74 70.7917 102.203 70.9297 101.609 70.9297C101.188 70.9297 100.797 70.8411 100.438 70.6641C100.083 70.4922 99.776 70.25 99.5156 69.9375C99.2604 69.6198 99.0599 69.2448 98.9141 68.8125C98.7682 68.375 98.6953 67.8958 98.6953 67.375C98.6953 67.1771 98.7005 66.9661 98.7109 66.7422C98.7214 66.5182 98.737 66.2786 98.7578 66.0234C98.7786 65.763 98.8047 65.4818 98.8359 65.1797C98.8724 64.8776 98.9115 64.5495 98.9531 64.1953C98.9688 64.0443 99.0391 63.9245 99.1641 63.8359C99.2943 63.7422 99.4583 63.6953 99.6562 63.6953C99.8333 63.6953 100 63.7135 100.156 63.75C100.312 63.7865 100.445 63.8359 100.555 63.8984C100.669 63.9609 100.758 64.0339 100.82 64.1172C100.888 64.2005 100.922 64.2891 100.922 64.3828C100.922 64.4766 100.901 64.625 100.859 64.8281C100.823 65.026 100.781 65.2552 100.734 65.5156C100.693 65.7708 100.651 66.0495 100.609 66.3516C100.573 66.6484 100.555 66.9427 100.555 67.2344ZM108.375 63.2188C108.724 63.2188 109.083 63.2656 109.453 63.3594C109.823 63.4479 110.161 63.5651 110.469 63.7109C110.776 63.8516 111.029 64.0104 111.227 64.1875C111.424 64.3646 111.523 64.5365 111.523 64.7031C111.523 64.7865 111.487 64.8802 111.414 64.9844C111.341 65.0833 111.253 65.1797 111.148 65.2734C111.044 65.362 110.93 65.4375 110.805 65.5C110.685 65.5573 110.578 65.5859 110.484 65.5859C110.359 65.5859 110.219 65.5339 110.062 65.4297C109.911 65.3255 109.742 65.2109 109.555 65.0859C109.372 64.9557 109.172 64.8385 108.953 64.7344C108.734 64.6302 108.497 64.5781 108.242 64.5781C108.076 64.5781 107.938 64.6198 107.828 64.7031C107.724 64.7812 107.672 64.8932 107.672 65.0391C107.672 65.1693 107.734 65.3021 107.859 65.4375C107.984 65.5677 108.148 65.7031 108.352 65.8438C108.56 65.9844 108.794 66.1328 109.055 66.2891C109.315 66.4453 109.581 66.612 109.852 66.7891C110.128 66.9661 110.396 67.1589 110.656 67.3672C110.917 67.5755 111.148 67.8021 111.352 68.0469C111.56 68.2917 111.727 68.5599 111.852 68.8516C111.977 69.138 112.039 69.4505 112.039 69.7891C112.039 70.0807 111.987 70.3464 111.883 70.5859C111.779 70.8255 111.63 71.0312 111.438 71.2031C111.245 71.375 111.016 71.5078 110.75 71.6016C110.484 71.6953 110.193 71.7422 109.875 71.7422C109.474 71.7422 109.104 71.6797 108.766 71.5547C108.427 71.4349 108.135 71.2682 107.891 71.0547C107.646 70.8411 107.453 70.5859 107.312 70.2891C107.177 69.9922 107.109 69.6667 107.109 69.3125C107.109 68.8542 107.19 68.5208 107.352 68.3125C107.518 68.1042 107.779 68 108.133 68C108.352 68 108.526 68.0417 108.656 68.125C108.786 68.2083 108.852 68.3099 108.852 68.4297C108.852 68.4922 108.841 68.5573 108.82 68.625C108.799 68.6875 108.776 68.7552 108.75 68.8281C108.729 68.8958 108.708 68.9688 108.688 69.0469C108.672 69.125 108.664 69.2031 108.664 69.2812C108.664 69.4167 108.695 69.5469 108.758 69.6719C108.82 69.7969 108.904 69.9062 109.008 70C109.117 70.099 109.242 70.1771 109.383 70.2344C109.523 70.2917 109.672 70.3203 109.828 70.3203C110.245 70.3203 110.453 70.1484 110.453 69.8047C110.453 69.5339 110.346 69.2786 110.133 69.0391C109.919 68.7943 109.651 68.5573 109.328 68.3281C109.005 68.0938 108.656 67.8594 108.281 67.625C107.911 67.3906 107.565 67.1458 107.242 66.8906C106.919 66.6354 106.651 66.3646 106.438 66.0781C106.224 65.7865 106.117 65.4714 106.117 65.1328C106.117 64.8516 106.174 64.5938 106.289 64.3594C106.409 64.125 106.57 63.9245 106.773 63.7578C106.977 63.5859 107.214 63.4531 107.484 63.3594C107.76 63.2656 108.057 63.2188 108.375 63.2188ZM25.0156 81.7031C25.0156 81.6094 25.0391 81.5234 25.0859 81.4453C25.1328 81.362 25.1979 81.2917 25.2812 81.2344C25.3646 81.1719 25.4609 81.1224 25.5703 81.0859C25.6849 81.0495 25.8047 81.0312 25.9297 81.0312C26.1745 81.0312 26.3542 81.0703 26.4688 81.1484C26.5833 81.2266 26.6536 81.349 26.6797 81.5156C26.7682 82.2083 26.8411 82.8646 26.8984 83.4844C26.9609 84.099 27.0104 84.6875 27.0469 85.25C27.0833 85.8073 27.1094 86.3438 27.125 86.8594C27.1406 87.3698 27.1484 87.8646 27.1484 88.3438C27.1484 88.6042 27.0547 88.7995 26.8672 88.9297C26.6849 89.0599 26.4167 89.125 26.0625 89.125C25.901 89.125 25.7734 89.0859 25.6797 89.0078C25.5911 88.9349 25.5469 88.8255 25.5469 88.6797C25.5469 87.7839 25.5182 86.9453 25.4609 86.1641C25.4089 85.3776 25.349 84.6797 25.2812 84.0703C25.2135 83.4609 25.151 82.9531 25.0938 82.5469C25.0417 82.1354 25.0156 81.8542 25.0156 81.7031ZM28.8594 81.7031C28.8594 81.6094 28.8828 81.5234 28.9297 81.4453C28.9766 81.362 29.0417 81.2917 29.125 81.2344C29.2083 81.1719 29.3047 81.1224 29.4141 81.0859C29.5286 81.0495 29.6484 81.0312 29.7734 81.0312C30.0182 81.0312 30.1979 81.0703 30.3125 81.1484C30.4271 81.2266 30.4974 81.349 30.5234 81.5156C30.612 82.2083 30.6849 82.8646 30.7422 83.4844C30.8047 84.099 30.8542 84.6875 30.8906 85.25C30.9271 85.8073 30.9531 86.3438 30.9688 86.8594C30.9844 87.3698 30.9922 87.8646 30.9922 88.3438C30.9922 88.6042 30.8984 88.7995 30.7109 88.9297C30.5286 89.0599 30.2604 89.125 29.9062 89.125C29.7448 89.125 29.6172 89.0859 29.5234 89.0078C29.4349 88.9349 29.3906 88.8255 29.3906 88.6797C29.3906 87.7839 29.362 86.9453 29.3047 86.1641C29.2526 85.3776 29.1927 84.6797 29.125 84.0703C29.0573 83.4609 28.9948 82.9531 28.9375 82.5469C28.8854 82.1354 28.8594 81.8542 28.8594 81.7031ZM32.7031 81.7031C32.7031 81.6094 32.7266 81.5234 32.7734 81.4453C32.8203 81.362 32.8854 81.2917 32.9688 81.2344C33.0521 81.1719 33.1484 81.1224 33.2578 81.0859C33.3724 81.0495 33.4922 81.0312 33.6172 81.0312C33.862 81.0312 34.0417 81.0703 34.1562 81.1484C34.2708 81.2266 34.3411 81.349 34.3672 81.5156C34.4557 82.2083 34.5286 82.8646 34.5859 83.4844C34.6484 84.099 34.6979 84.6875 34.7344 85.25C34.7708 85.8073 34.7969 86.3438 34.8125 86.8594C34.8281 87.3698 34.8359 87.8646 34.8359 88.3438C34.8359 88.6042 34.7422 88.7995 34.5547 88.9297C34.3724 89.0599 34.1042 89.125 33.75 89.125C33.5885 89.125 33.4609 89.0859 33.3672 89.0078C33.2786 88.9349 33.2344 88.8255 33.2344 88.6797C33.2344 87.7839 33.2057 86.9453 33.1484 86.1641C33.0964 85.3776 33.0365 84.6797 32.9688 84.0703C32.901 83.4609 32.8385 82.9531 32.7812 82.5469C32.7292 82.1354 32.7031 81.8542 32.7031 81.7031ZM37.7656 82.5078C37.724 82.5078 37.6432 82.5182 37.5234 82.5391C37.4089 82.5547 37.2734 82.5755 37.1172 82.6016C36.9609 82.6276 36.7969 82.6589 36.625 82.6953C36.4531 82.7266 36.2917 82.7552 36.1406 82.7812C35.9896 82.8073 35.8594 82.8307 35.75 82.8516C35.6354 82.8672 35.5599 82.875 35.5234 82.875C35.1745 82.875 35 82.6927 35 82.3281C35 82.2292 35.0104 82.1328 35.0312 82.0391C35.0469 81.9401 35.0781 81.8516 35.125 81.7734C35.1719 81.6901 35.2344 81.6198 35.3125 81.5625C35.3906 81.5052 35.4896 81.4661 35.6094 81.4453C36.2188 81.3516 36.8255 81.2526 37.4297 81.1484C38.0339 81.0443 38.6432 80.9349 39.2578 80.8203C39.3932 80.7943 39.5156 80.7708 39.625 80.75C39.7344 80.724 39.8568 80.6901 39.9922 80.6484C40.138 80.6068 40.2969 80.5677 40.4688 80.5312C40.6406 80.4896 40.8125 80.4531 40.9844 80.4219C41.1615 80.3906 41.3307 80.3646 41.4922 80.3438C41.6589 80.3229 41.8099 80.3125 41.9453 80.3125C42.112 80.3125 42.237 80.3672 42.3203 80.4766C42.4089 80.5807 42.4531 80.7292 42.4531 80.9219C42.4531 81.0208 42.4453 81.1172 42.4297 81.2109C42.4141 81.2995 42.3854 81.3802 42.3438 81.4531C42.3021 81.526 42.2448 81.5859 42.1719 81.6328C42.099 81.6797 42.0052 81.7083 41.8906 81.7188C41.5938 81.7604 41.276 81.8125 40.9375 81.875C40.599 81.9323 40.3047 81.9974 40.0547 82.0703C39.9505 82.1016 39.8724 82.1536 39.8203 82.2266C39.7682 82.2943 39.7344 82.3802 39.7188 82.4844C39.7031 82.5833 39.6927 82.6849 39.6875 82.7891C39.6875 82.888 39.6875 82.9844 39.6875 83.0781C39.6875 83.2969 39.6953 83.5156 39.7109 83.7344C39.7318 83.9531 39.75 84.1719 39.7656 84.3906C39.8125 85.1406 39.8828 85.8828 39.9766 86.6172C40.0755 87.3516 40.1823 88.0938 40.2969 88.8438C40.3073 88.8698 40.3125 88.8958 40.3125 88.9219C40.3125 88.9479 40.3125 88.974 40.3125 89C40.3125 89.2865 40.151 89.4896 39.8281 89.6094L39.4766 89.7188C39.3828 89.75 39.2917 89.7656 39.2031 89.7656C39.0677 89.7656 38.9583 89.7214 38.875 89.6328C38.7917 89.5495 38.737 89.4245 38.7109 89.2578C38.5651 88.362 38.4375 87.4714 38.3281 86.5859C38.2188 85.6953 38.1484 84.7995 38.1172 83.8984C38.1068 83.7526 38.099 83.5938 38.0938 83.4219C38.0885 83.25 38.0859 83.0729 38.0859 82.8906C38.0859 82.6354 37.9792 82.5078 37.7656 82.5078ZM53.3828 81.6094C53.3828 81.8125 53.3151 82.0026 53.1797 82.1797C53.0495 82.3568 52.8828 82.5286 52.6797 82.6953C52.4818 82.862 52.2656 83.0234 52.0312 83.1797C51.7969 83.3359 51.5781 83.4948 51.375 83.6562C51.1771 83.8177 51.0104 83.9818 50.875 84.1484C50.7448 84.3151 50.6797 84.4922 50.6797 84.6797C50.6797 84.8359 50.7891 84.987 51.0078 85.1328C51.2266 85.2786 51.5417 85.4245 51.9531 85.5703C52.3646 85.7161 52.862 85.8672 53.4453 86.0234C54.0286 86.1745 54.6849 86.3359 55.4141 86.5078C55.7786 86.6068 55.9609 86.7917 55.9609 87.0625C55.9609 87.1667 55.9349 87.2682 55.8828 87.3672C55.8359 87.4661 55.7708 87.5547 55.6875 87.6328C55.6042 87.7057 55.5078 87.7656 55.3984 87.8125C55.2943 87.8594 55.1875 87.8828 55.0781 87.8828C54.8177 87.8828 54.5208 87.8438 54.1875 87.7656C53.8594 87.6875 53.5182 87.5911 53.1641 87.4766C52.8099 87.362 52.4557 87.237 52.1016 87.1016C51.7474 86.9609 51.4141 86.8333 51.1016 86.7188C50.7943 86.6042 50.5208 86.5078 50.2812 86.4297C50.0469 86.3516 49.8698 86.3125 49.75 86.3125C49.6562 86.3125 49.5651 86.3568 49.4766 86.4453C49.3932 86.5286 49.3151 86.6458 49.2422 86.7969C49.1745 86.9479 49.1172 87.1276 49.0703 87.3359C49.0234 87.5391 48.9896 87.763 48.9688 88.0078C48.9427 88.2839 48.8438 88.4896 48.6719 88.625C48.5052 88.7552 48.2734 88.8203 47.9766 88.8203C47.6693 88.8203 47.4922 88.6771 47.4453 88.3906C47.3672 87.9531 47.2708 87.5078 47.1562 87.0547C47.0469 86.6016 46.9245 86.1484 46.7891 85.6953C46.6589 85.2422 46.5156 84.7943 46.3594 84.3516C46.2083 83.9089 46.0495 83.4844 45.8828 83.0781C45.8411 82.9896 45.8099 82.9089 45.7891 82.8359C45.7734 82.7578 45.7656 82.6797 45.7656 82.6016C45.7656 82.5339 45.7865 82.4714 45.8281 82.4141C45.8698 82.3516 45.9271 82.2969 46 82.25C46.0729 82.2031 46.1562 82.1667 46.25 82.1406C46.349 82.1146 46.4505 82.1016 46.5547 82.1016C46.7682 82.1016 46.9375 82.1458 47.0625 82.2344C47.1875 82.3229 47.3151 82.4557 47.4453 82.6328C47.5078 82.7161 47.5677 82.8281 47.625 82.9688C47.6823 83.1042 47.737 83.25 47.7891 83.4062C47.8411 83.5625 47.8932 83.7214 47.9453 83.8828C47.9974 84.0391 48.0469 84.1823 48.0938 84.3125C48.1458 84.4375 48.1953 84.5417 48.2422 84.625C48.2943 84.7031 48.3438 84.7422 48.3906 84.7422C48.4323 84.7422 48.4661 84.724 48.4922 84.6875C48.5234 84.651 48.5599 84.5964 48.6016 84.5234C48.8724 83.9609 49.1693 83.4479 49.4922 82.9844C49.8151 82.5156 50.1458 82.1172 50.4844 81.7891C50.8229 81.4557 51.1615 81.1979 51.5 81.0156C51.8438 80.8333 52.1719 80.7422 52.4844 80.7422C52.6094 80.7422 52.7266 80.7656 52.8359 80.8125C52.9453 80.8542 53.0391 80.9141 53.1172 80.9922C53.2005 81.0703 53.2656 81.1641 53.3125 81.2734C53.3594 81.3776 53.3828 81.4896 53.3828 81.6094ZM60.0703 82.1719C60.3568 82.1719 60.6328 82.2161 60.8984 82.3047C61.1641 82.3932 61.3984 82.5156 61.6016 82.6719C61.8047 82.8281 61.9661 83.0156 62.0859 83.2344C62.2109 83.4531 62.2734 83.6953 62.2734 83.9609C62.2734 84.0703 62.2474 84.1771 62.1953 84.2812C62.1484 84.3802 62.0833 84.4688 62 84.5469C61.9167 84.6198 61.8203 84.6797 61.7109 84.7266C61.6068 84.7682 61.4974 84.7891 61.3828 84.7891C61.3724 84.7891 61.362 84.7917 61.3516 84.7969C61.3464 84.7969 61.3385 84.7969 61.3281 84.7969C61.3177 84.8021 61.3073 84.8047 61.2969 84.8047L61.3281 85.4297C61.349 86.1745 61.4531 86.7188 61.6406 87.0625C61.8333 87.4062 62.0833 87.5781 62.3906 87.5781C62.5 87.5781 62.5964 87.5677 62.6797 87.5469C62.7682 87.526 62.849 87.5026 62.9219 87.4766C63 87.4453 63.0729 87.4193 63.1406 87.3984C63.2083 87.3776 63.276 87.3672 63.3438 87.3672C63.4635 87.3672 63.5677 87.4193 63.6562 87.5234C63.75 87.6276 63.7969 87.7526 63.7969 87.8984C63.7969 88.0443 63.7396 88.1901 63.625 88.3359C63.5156 88.4818 63.3698 88.6146 63.1875 88.7344C63.0052 88.849 62.7995 88.9427 62.5703 89.0156C62.3411 89.0885 62.1094 89.125 61.875 89.125C61.4688 89.125 61.112 88.9583 60.8047 88.625C60.4974 88.2865 60.2786 87.7917 60.1484 87.1406C60.1172 87.0365 60.0755 86.9844 60.0234 86.9844C59.9609 86.9844 59.9062 87.0156 59.8594 87.0781C59.3438 87.7292 58.7943 88.2188 58.2109 88.5469C57.6276 88.8698 57.0521 89.0312 56.4844 89.0312C56.2188 89.0312 55.9792 88.9922 55.7656 88.9141C55.5521 88.8359 55.3698 88.7266 55.2188 88.5859C55.0729 88.4401 54.9583 88.2656 54.875 88.0625C54.7969 87.8542 54.7578 87.6224 54.7578 87.3672C54.7578 87.0078 54.8359 86.6302 54.9922 86.2344C55.1536 85.8385 55.3698 85.4479 55.6406 85.0625C55.9115 84.6771 56.224 84.3099 56.5781 83.9609C56.9375 83.612 57.3125 83.3047 57.7031 83.0391C58.099 82.7734 58.5 82.5625 58.9062 82.4062C59.3125 82.25 59.7005 82.1719 60.0703 82.1719ZM59.8125 84.875C59.9062 84.6979 59.9922 84.5703 60.0703 84.4922C60.1484 84.4089 60.2604 84.3542 60.4062 84.3281C60.5208 84.3125 60.5781 84.276 60.5781 84.2188C60.5781 84.1771 60.5625 84.1328 60.5312 84.0859C60.4323 83.9505 60.3281 83.8333 60.2188 83.7344C60.1094 83.6302 59.9635 83.5781 59.7812 83.5781C59.5833 83.5781 59.362 83.6354 59.1172 83.75C58.8724 83.8646 58.6224 84.0182 58.3672 84.2109C58.1172 84.3984 57.8698 84.6146 57.625 84.8594C57.3854 85.099 57.1719 85.3464 56.9844 85.6016C56.7969 85.8568 56.6458 86.1094 56.5312 86.3594C56.4167 86.6094 56.3594 86.8333 56.3594 87.0312C56.3594 87.2083 56.4062 87.3464 56.5 87.4453C56.599 87.5443 56.7318 87.5938 56.8984 87.5938C57.3255 87.5938 57.7917 87.3672 58.2969 86.9141C58.8021 86.4609 59.3073 85.7812 59.8125 84.875ZM63.6328 80.1016C63.6328 79.8307 63.7109 79.638 63.8672 79.5234C64.0234 79.4089 64.2812 79.3516 64.6406 79.3516C64.7656 79.3516 64.875 79.3646 64.9688 79.3906C65.0625 79.4167 65.1406 79.4609 65.2031 79.5234C65.2656 79.5807 65.3151 79.6615 65.3516 79.7656C65.3932 79.8646 65.4271 79.9922 65.4531 80.1484C65.5208 80.612 65.5885 81.099 65.6562 81.6094C65.7292 82.1146 65.7969 82.6198 65.8594 83.125C65.9271 83.625 65.9896 84.1146 66.0469 84.5938C66.1042 85.0677 66.1536 85.5104 66.1953 85.9219C66.2422 86.3281 66.276 86.6901 66.2969 87.0078C66.3229 87.3203 66.3359 87.5677 66.3359 87.75C66.3359 87.9375 66.3177 88.0964 66.2812 88.2266C66.25 88.3568 66.1927 88.4609 66.1094 88.5391C66.0312 88.6172 65.9271 88.6745 65.7969 88.7109C65.6719 88.7422 65.5156 88.7578 65.3281 88.7578C65.1458 88.7578 65 88.7109 64.8906 88.6172C64.7865 88.5234 64.7344 88.3802 64.7344 88.1875C64.7344 87.9896 64.7188 87.7266 64.6875 87.3984C64.6562 87.0651 64.6146 86.6953 64.5625 86.2891C64.5104 85.8828 64.4505 85.4505 64.3828 84.9922C64.3203 84.5339 64.2526 84.0807 64.1797 83.6328C64.112 83.1849 64.0443 82.7552 63.9766 82.3438C63.9141 81.9271 63.8568 81.5599 63.8047 81.2422C63.7526 80.9193 63.7109 80.6562 63.6797 80.4531C63.6484 80.2448 63.6328 80.1276 63.6328 80.1016ZM70.8438 89.2109C70.5312 89.2109 70.2188 89.1354 69.9062 88.9844C69.5938 88.8281 69.2943 88.6172 69.0078 88.3516C68.7214 88.0859 68.4557 87.7734 68.2109 87.4141C67.9661 87.0495 67.7526 86.6589 67.5703 86.2422C67.388 85.8203 67.2448 85.3802 67.1406 84.9219C67.0365 84.4635 66.9844 84.0052 66.9844 83.5469C66.9844 83.1927 67.0573 82.9401 67.2031 82.7891C67.349 82.6328 67.5859 82.5547 67.9141 82.5547C68.3255 82.5547 68.5547 82.724 68.6016 83.0625C68.6953 83.7812 68.8255 84.4297 68.9922 85.0078C69.1589 85.5859 69.3542 86.0781 69.5781 86.4844C69.8073 86.8906 70.0599 87.2031 70.3359 87.4219C70.6172 87.6406 70.9141 87.75 71.2266 87.75C71.4505 87.75 71.6615 87.6953 71.8594 87.5859C72.0573 87.4714 72.2292 87.3125 72.375 87.1094C72.4271 87.0312 72.4609 86.9557 72.4766 86.8828C72.4974 86.8099 72.513 86.7266 72.5234 86.6328C72.5495 86.263 72.5781 85.901 72.6094 85.5469C72.6458 85.1875 72.6797 84.8281 72.7109 84.4688C72.7214 84.3125 72.7422 84.1849 72.7734 84.0859C72.8047 83.987 72.8516 83.9089 72.9141 83.8516C72.9766 83.7943 73.0573 83.7552 73.1562 83.7344C73.2604 83.7135 73.3906 83.7031 73.5469 83.7031C73.724 83.7031 73.875 83.7292 74 83.7812C74.125 83.8281 74.2266 83.9089 74.3047 84.0234C74.3828 84.1328 74.4375 84.2786 74.4688 84.4609C74.5052 84.638 74.5234 84.8594 74.5234 85.125C74.5234 85.3542 74.5052 85.5547 74.4688 85.7266C74.4375 85.8932 74.3984 86.0521 74.3516 86.2031C74.3099 86.349 74.2682 86.4948 74.2266 86.6406C74.1901 86.7812 74.1667 86.9375 74.1562 87.1094C74.1302 87.5417 74.1068 87.9167 74.0859 88.2344C74.0651 88.5469 74.0469 88.8151 74.0312 89.0391C74.0208 89.263 74.0104 89.4557 74 89.6172C73.9948 89.7786 73.9896 89.9219 73.9844 90.0469C73.9792 90.1771 73.9766 90.2995 73.9766 90.4141C73.9766 90.5286 73.9766 90.6536 73.9766 90.7891C73.9766 91.0339 73.987 91.2995 74.0078 91.5859C74.0286 91.8776 74.0495 92.1562 74.0703 92.4219C74.0964 92.6875 74.1198 92.9219 74.1406 93.125C74.1615 93.3281 74.1719 93.4688 74.1719 93.5469C74.1719 93.6458 74.1406 93.7396 74.0781 93.8281C74.0156 93.9167 73.9323 93.9948 73.8281 94.0625C73.724 94.1302 73.6016 94.1823 73.4609 94.2188C73.3203 94.2604 73.1719 94.2812 73.0156 94.2812C72.8802 94.2812 72.7708 94.2344 72.6875 94.1406C72.6094 94.0521 72.5651 93.9323 72.5547 93.7812C72.5391 93.5833 72.526 93.3411 72.5156 93.0547C72.5052 92.7734 72.4948 92.4714 72.4844 92.1484C72.474 91.8307 72.4661 91.5052 72.4609 91.1719C72.4609 90.8438 72.4583 90.5365 72.4531 90.25C72.4479 89.9688 72.4453 89.7214 72.4453 89.5078C72.4453 89.2943 72.4453 89.1406 72.4453 89.0469C72.4453 88.9531 72.4349 88.888 72.4141 88.8516C72.3932 88.8099 72.3542 88.7891 72.2969 88.7891C72.2656 88.7891 72.224 88.7995 72.1719 88.8203C72.1198 88.8359 72.0599 88.8646 71.9922 88.9062C71.8099 89.0156 71.625 89.0938 71.4375 89.1406C71.25 89.1875 71.0521 89.2109 70.8438 89.2109ZM80.3672 82.1719C80.6536 82.1719 80.9297 82.2161 81.1953 82.3047C81.4609 82.3932 81.6953 82.5156 81.8984 82.6719C82.1016 82.8281 82.263 83.0156 82.3828 83.2344C82.5078 83.4531 82.5703 83.6953 82.5703 83.9609C82.5703 84.0703 82.5443 84.1771 82.4922 84.2812C82.4453 84.3802 82.3802 84.4688 82.2969 84.5469C82.2135 84.6198 82.1172 84.6797 82.0078 84.7266C81.9036 84.7682 81.7943 84.7891 81.6797 84.7891C81.6693 84.7891 81.6589 84.7917 81.6484 84.7969C81.6432 84.7969 81.6354 84.7969 81.625 84.7969C81.6146 84.8021 81.6042 84.8047 81.5938 84.8047L81.625 85.4297C81.6458 86.1745 81.75 86.7188 81.9375 87.0625C82.1302 87.4062 82.3802 87.5781 82.6875 87.5781C82.7969 87.5781 82.8932 87.5677 82.9766 87.5469C83.0651 87.526 83.1458 87.5026 83.2188 87.4766C83.2969 87.4453 83.3698 87.4193 83.4375 87.3984C83.5052 87.3776 83.5729 87.3672 83.6406 87.3672C83.7604 87.3672 83.8646 87.4193 83.9531 87.5234C84.0469 87.6276 84.0938 87.7526 84.0938 87.8984C84.0938 88.0443 84.0365 88.1901 83.9219 88.3359C83.8125 88.4818 83.6667 88.6146 83.4844 88.7344C83.3021 88.849 83.0964 88.9427 82.8672 89.0156C82.638 89.0885 82.4062 89.125 82.1719 89.125C81.7656 89.125 81.4089 88.9583 81.1016 88.625C80.7943 88.2865 80.5755 87.7917 80.4453 87.1406C80.4141 87.0365 80.3724 86.9844 80.3203 86.9844C80.2578 86.9844 80.2031 87.0156 80.1562 87.0781C79.6406 87.7292 79.0911 88.2188 78.5078 88.5469C77.9245 88.8698 77.349 89.0312 76.7812 89.0312C76.5156 89.0312 76.276 88.9922 76.0625 88.9141C75.849 88.8359 75.6667 88.7266 75.5156 88.5859C75.3698 88.4401 75.2552 88.2656 75.1719 88.0625C75.0938 87.8542 75.0547 87.6224 75.0547 87.3672C75.0547 87.0078 75.1328 86.6302 75.2891 86.2344C75.4505 85.8385 75.6667 85.4479 75.9375 85.0625C76.2083 84.6771 76.5208 84.3099 76.875 83.9609C77.2344 83.612 77.6094 83.3047 78 83.0391C78.3958 82.7734 78.7969 82.5625 79.2031 82.4062C79.6094 82.25 79.9974 82.1719 80.3672 82.1719ZM80.1094 84.875C80.2031 84.6979 80.2891 84.5703 80.3672 84.4922C80.4453 84.4089 80.5573 84.3542 80.7031 84.3281C80.8177 84.3125 80.875 84.276 80.875 84.2188C80.875 84.1771 80.8594 84.1328 80.8281 84.0859C80.7292 83.9505 80.625 83.8333 80.5156 83.7344C80.4062 83.6302 80.2604 83.5781 80.0781 83.5781C79.8802 83.5781 79.6589 83.6354 79.4141 83.75C79.1693 83.8646 78.9193 84.0182 78.6641 84.2109C78.4141 84.3984 78.1667 84.6146 77.9219 84.8594C77.6823 85.099 77.4688 85.3464 77.2812 85.6016C77.0938 85.8568 76.9427 86.1094 76.8281 86.3594C76.7135 86.6094 76.6562 86.8333 76.6562 87.0312C76.6562 87.2083 76.7031 87.3464 76.7969 87.4453C76.8958 87.5443 77.0286 87.5938 77.1953 87.5938C77.6224 87.5938 78.0885 87.3672 78.5938 86.9141C79.099 86.4609 79.6042 85.7812 80.1094 84.875ZM84.4844 82.6953C84.4844 82.6172 84.5182 82.5417 84.5859 82.4688C84.6536 82.3906 84.7422 82.3229 84.8516 82.2656C84.9609 82.2031 85.0833 82.1536 85.2188 82.1172C85.3594 82.0755 85.5 82.0547 85.6406 82.0547C85.7188 82.0547 85.7839 82.0755 85.8359 82.1172C85.8932 82.1589 85.9427 82.2396 85.9844 82.3594C86.026 82.474 86.0625 82.638 86.0938 82.8516C86.1302 83.0599 86.1641 83.3333 86.1953 83.6719C86.2161 83.776 86.2344 83.8568 86.25 83.9141C86.2708 83.9661 86.2969 83.9922 86.3281 83.9922C86.375 83.9922 86.4219 83.9115 86.4688 83.75C86.849 82.651 87.3984 82.1016 88.1172 82.1016C88.4505 82.1016 88.7526 82.2057 89.0234 82.4141C89.2995 82.6224 89.5547 82.9635 89.7891 83.4375C90.0286 83.9062 90.2552 84.526 90.4688 85.2969C90.6823 86.0625 90.8958 87.0078 91.1094 88.1328C91.1198 88.1901 91.1276 88.2422 91.1328 88.2891C91.138 88.3359 91.1406 88.3802 91.1406 88.4219C91.1406 88.5417 91.112 88.6458 91.0547 88.7344C91.0026 88.8177 90.9323 88.888 90.8438 88.9453C90.7552 88.9974 90.6562 89.0365 90.5469 89.0625C90.4375 89.0938 90.3281 89.1094 90.2188 89.1094C90 89.1094 89.8411 89.0859 89.7422 89.0391C89.6484 88.9922 89.5885 88.9036 89.5625 88.7734C89.4115 87.9818 89.263 87.2786 89.1172 86.6641C88.9766 86.0495 88.8359 85.5339 88.6953 85.1172C88.5599 84.6953 88.4245 84.375 88.2891 84.1562C88.1536 83.9375 88.0182 83.8281 87.8828 83.8281C87.7474 83.8281 87.6198 83.9141 87.5 84.0859C87.3854 84.2526 87.2734 84.5156 87.1641 84.875C87.0547 85.2344 86.9479 85.6901 86.8438 86.2422C86.7448 86.7943 86.6484 87.4531 86.5547 88.2188C86.5286 88.4271 86.4245 88.5938 86.2422 88.7188C86.0599 88.8438 85.8281 88.9062 85.5469 88.9062C85.3594 88.9062 85.2161 88.8672 85.1172 88.7891C85.0182 88.7109 84.9635 88.6042 84.9531 88.4688C84.9062 87.3854 84.8542 86.4948 84.7969 85.7969C84.7448 85.0938 84.6953 84.5312 84.6484 84.1094C84.6016 83.6823 84.5625 83.3646 84.5312 83.1562C84.5 82.9479 84.4844 82.7943 84.4844 82.6953ZM93.1328 81.0312C92.9818 81.0312 92.8385 81.0104 92.7031 80.9688C92.5729 80.9219 92.4583 80.8594 92.3594 80.7812C92.2656 80.6979 92.1901 80.6016 92.1328 80.4922C92.0755 80.3828 92.0469 80.263 92.0469 80.1328C92.0469 79.9141 92.1328 79.737 92.3047 79.6016C92.4818 79.4661 92.7161 79.3984 93.0078 79.3984C93.1432 79.3984 93.2734 79.4245 93.3984 79.4766C93.5234 79.5234 93.6328 79.5885 93.7266 79.6719C93.8255 79.7552 93.9036 79.8542 93.9609 79.9688C94.0182 80.0781 94.0469 80.1927 94.0469 80.3125C94.0469 80.5365 93.9635 80.7135 93.7969 80.8438C93.6354 80.9688 93.4141 81.0312 93.1328 81.0312ZM92.0625 83.4141C92.0625 83.2318 92.1406 83.0833 92.2969 82.9688C92.4583 82.849 92.6693 82.7891 92.9297 82.7891C93.3984 82.7891 93.6484 82.9505 93.6797 83.2734C93.7005 83.4974 93.7214 83.75 93.7422 84.0312C93.7682 84.3125 93.7917 84.612 93.8125 84.9297C93.8385 85.2422 93.8594 85.5677 93.875 85.9062C93.8958 86.2396 93.9141 86.5703 93.9297 86.8984C93.9453 87.2214 93.9583 87.5339 93.9688 87.8359C93.9792 88.138 93.9844 88.4141 93.9844 88.6641C93.9844 88.9245 93.8906 89.1198 93.7031 89.25C93.5208 89.3802 93.2526 89.4453 92.8984 89.4453C92.737 89.4453 92.6094 89.4062 92.5156 89.3281C92.4271 89.2552 92.3828 89.1458 92.3828 89C92.3828 88.2812 92.3646 87.6094 92.3281 86.9844C92.2969 86.3542 92.2604 85.7943 92.2188 85.3047C92.1823 84.8151 92.1458 84.4089 92.1094 84.0859C92.0781 83.7578 92.0625 83.5339 92.0625 83.4141Z" fill="#0541FB"/>
</svg>
