<svg width="67" height="76" viewBox="0 0 67 76" fill="none" xmlns="http://www.w3.org/2000/svg">
<path d="M1.76519 26.5022C5.57375 24.4977 13.7045 26.6094 15.2605 25.2573L1.76519 26.5022ZM1.73961 25.2574C3.52525 24.3237 10.8094 27.4561 15.4055 25.5081L1.73961 25.2574ZM17.3929 26.5244C22.0477 38.2215 29.0269 52.8659 35.9218 61.0244L17.3929 26.5244ZM14.7062 26.6995C21.9624 36.8734 35.9135 52.1687 43.0626 67.1282L14.7062 26.6995ZM44.3568 66.7344C41.3254 68.8408 34.1919 66.3937 27.8475 67.1282L44.3568 66.7344ZM43.4798 66.6705C40.673 67.5646 31.509 66.7439 29.2468 67.7168L43.4798 66.6705ZM32.0441 69.5443C23.3478 56.542 7.84088 36.8664 2.56361 24.0922L32.0441 69.5443ZM29.4349 66.5256C20.6194 54.8124 6.68654 34.6797 1.54557 24.2477L29.4349 66.5256Z" fill="#D9D9D9"/>
<path d="M1.76519 26.5022C5.57375 24.4977 13.7045 26.6094 15.2605 25.2573M1.73961 25.2574C3.52525 24.3237 10.8094 27.4561 15.4055 25.5081M17.3929 26.5244C22.0477 38.2215 29.0269 52.8659 35.9218 61.0244M14.7062 26.6995C21.9624 36.8734 35.9135 52.1687 43.0626 67.1282M44.3568 66.7344C41.3254 68.8408 34.1919 66.3937 27.8475 67.1282M43.4798 66.6705C40.673 67.5646 31.509 66.7439 29.2468 67.7168M32.0441 69.5443C23.3478 56.542 7.84088 36.8664 2.56361 24.0922M29.4349 66.5256C20.6194 54.8124 6.68654 34.6797 1.54557 24.2477" stroke="#0541FB" stroke-width="2" stroke-linecap="round"/>
<path d="M2.40404 67.0361C7.32185 61.2968 12.5443 55.1948 17.9279 49.329L17.0759 48.425C12.7015 53.1025 8.52987 57.9852 4.94739 62.851M42.9255 26.4351C37.2984 30.2783 31.6138 35.2977 26.0221 40.8662L25.1701 40.1931C31.2072 34.3332 37.1875 29.0907 42.1646 25.0097" stroke="#0541FB" stroke-width="2" stroke-linecap="round"/>
<path d="M43.8342 5.98019L44.0561 15.0675M49.9868 16.1569L56.9271 7.20328M56.6287 21.0965L64.2667 18.8116" stroke="#0541FB" stroke-width="3" stroke-linecap="round"/>
</svg>
