<svg width="1526" height="834" viewBox="0 0 1526 834" fill="none" xmlns="http://www.w3.org/2000/svg">
<mask id="path-1-inside-1_263_92" fill="white">
<path d="M182.816 9.06302L1326.65 0L1389.25 16.6248L1442.46 24.8538L1491.34 87.6277L1507.85 106.31L1506.07 190.268L1525.48 646.143L1516.8 684.619L1489.67 753.343L1451.14 807.554L1419.83 807.609L1345.16 816.394L182.038 826.959L151.068 826.569L77.2291 810.223L19.793 764.463L7.67188 689.345L9.11751 150.68L17.6801 101.472L41.1995 45.8711L107.254 24.0754L185.429 12.2323"/>
</mask>
<path d="M182.816 9.06302L1326.65 0L1389.25 16.6248L1442.46 24.8538L1491.34 87.6277L1507.85 106.31L1506.07 190.268L1525.48 646.143L1516.8 684.619L1489.67 753.343L1451.14 807.554L1419.83 807.609L1345.16 816.394L182.038 826.959L151.068 826.569L77.2291 810.223L19.793 764.463L7.67188 689.345L9.11751 150.68L17.6801 101.472L41.1995 45.8711L107.254 24.0754L185.429 12.2323" fill="#EEEEEE"/>
<path d="M1326.65 0L1328.7 -7.73204L1327.66 -8.00828L1326.58 -7.99975L1326.65 0ZM1389.25 16.6248L1387.2 24.3568L1387.61 24.4659L1388.03 24.5308L1389.25 16.6248ZM1442.46 24.8538L1448.78 19.9392L1446.83 17.4332L1443.69 16.9478L1442.46 24.8538ZM1491.34 87.6277L1485.03 92.5423L1485.18 92.7391L1485.34 92.926L1491.34 87.6277ZM1507.85 106.31L1515.85 106.479L1515.92 103.354L1513.85 101.011L1507.85 106.31ZM1506.07 190.268L1498.07 190.098L1498.07 190.353L1498.08 190.608L1506.07 190.268ZM1525.48 646.143L1533.28 647.902L1533.52 646.865L1533.47 645.803L1525.48 646.143ZM1516.8 684.619L1524.24 687.557L1524.47 686.982L1524.61 686.379L1516.8 684.619ZM1489.67 753.343L1496.19 757.977L1496.75 757.185L1497.11 756.28L1489.67 753.343ZM1451.14 807.554L1451.15 815.554L1455.27 815.547L1457.66 812.189L1451.14 807.554ZM1419.83 807.609L1419.82 799.609L1419.36 799.61L1418.9 799.664L1419.83 807.609ZM1345.16 816.394L1345.23 824.394L1345.67 824.39L1346.1 824.34L1345.16 816.394ZM182.038 826.959L181.937 834.958L182.024 834.959L182.11 834.958L182.038 826.959ZM151.068 826.569L149.339 834.38L150.143 834.558L150.967 834.569L151.068 826.569ZM77.2291 810.223L72.2441 816.48L73.6922 817.633L75.4999 818.034L77.2291 810.223ZM19.793 764.463L11.8951 765.737L12.388 768.792L14.808 770.72L19.793 764.463ZM7.67188 689.345L-0.328096 689.324L-0.329846 689.976L-0.225965 690.62L7.67188 689.345ZM9.11751 150.68L1.23595 149.308L1.11936 149.978L1.11754 150.658L9.11751 150.68ZM17.6801 101.472L10.3122 98.3558L9.9555 99.199L9.79855 100.101L17.6801 101.472ZM41.1995 45.8711L38.6927 38.274L35.2457 39.4114L33.8315 42.7545L41.1995 45.8711ZM107.254 24.0754L106.056 16.1656L105.388 16.2667L104.747 16.4783L107.254 24.0754ZM182.879 17.0628L1326.71 7.99975L1326.58 -7.99975L182.753 1.06327L182.879 17.0628ZM1324.59 7.73204L1387.2 24.3568L1391.31 8.89276L1328.7 -7.73204L1324.59 7.73204ZM1388.03 24.5308L1441.24 32.7598L1443.69 16.9478L1390.48 8.71878L1388.03 24.5308ZM1436.15 29.7684L1485.03 92.5423L1497.65 82.7131L1448.78 19.9392L1436.15 29.7684ZM1485.34 92.926L1501.86 111.608L1513.85 101.011L1497.33 82.3294L1485.34 92.926ZM1499.85 106.14L1498.07 190.098L1514.07 190.437L1515.85 106.479L1499.85 106.14ZM1498.08 190.608L1517.48 646.483L1533.47 645.803L1514.07 189.928L1498.08 190.608ZM1517.67 644.384L1509 682.86L1524.61 686.379L1533.28 647.902L1517.67 644.384ZM1509.36 681.681L1482.23 750.405L1497.11 756.28L1524.24 687.557L1509.36 681.681ZM1483.15 748.708L1444.62 802.919L1457.66 812.189L1496.19 757.977L1483.15 748.708ZM1451.12 799.554L1419.82 799.609L1419.85 815.609L1451.15 815.554L1451.12 799.554ZM1418.9 799.664L1344.23 808.449L1346.1 824.34L1420.77 815.555L1418.9 799.664ZM1345.09 808.395L181.965 818.959L182.11 834.958L1345.23 824.394L1345.09 808.395ZM182.138 818.959L151.168 818.57L150.967 834.569L181.937 834.958L182.138 818.959ZM152.797 818.759L78.9584 802.412L75.4999 818.034L149.339 834.38L152.797 818.759ZM82.2141 803.966L24.778 758.206L14.808 770.72L72.2441 816.48L82.2141 803.966ZM27.6908 763.188L15.5697 688.071L-0.225965 690.62L11.8951 765.737L27.6908 763.188ZM15.6718 689.367L17.1175 150.701L1.11754 150.658L-0.328096 689.324L15.6718 689.367ZM16.9991 152.051L25.5617 102.844L9.79855 100.101L1.23595 149.308L16.9991 152.051ZM25.0481 104.589L48.5674 48.9877L33.8315 42.7545L10.3122 98.3558L25.0481 104.589ZM43.7063 53.4682L109.761 31.6725L104.747 16.4783L38.6927 38.274L43.7063 53.4682ZM108.452 31.9851L186.628 20.142L184.231 4.32254L106.056 16.1656L108.452 31.9851Z" fill="#0541FB" mask="url(#path-1-inside-1_263_92)"/>
<path d="M183.199 8.0063C543.774 20.1274 906.461 6.94987 1336.54 8.0063M183.199 8.0063C619.225 10.4528 1068.43 6.50506 1336.54 8.0063M183.199 8.0063C71.4959 -0.111497 4.66315 56.3795 5.27476 185.931M183.199 8.0063C73.72 10.5084 -3.28784 69.5014 5.27476 185.931M1336.54 8.0063C1463.53 18.7374 1516.3 64.7753 1514.46 185.931M1336.54 8.0063C1461.92 10.5084 1526.69 63.9968 1514.46 185.931M1514.46 185.931C1503.17 278.562 1509.85 368.136 1514.46 647.477M1514.46 185.931C1513.91 284.011 1516.91 371.75 1514.46 647.477M1514.46 647.477C1525.58 768.577 1450.02 828.07 1336.54 825.401M1514.46 647.477C1507.29 761.794 1463.64 833.797 1336.54 825.401M1336.54 825.401C909.13 827.904 476.885 824.401 183.199 825.401M1336.54 825.401C948.607 832.129 559.564 830.906 183.199 825.401M183.199 825.401C59.0412 821.065 -4.78908 762.072 5.27476 647.477M183.199 825.401C74.2204 813.725 8.61084 763.184 5.27476 647.477M5.27476 647.477C18.1743 509.419 17.7295 378.756 5.27476 185.931M5.27476 647.477C5.55277 550.342 2.27229 464.66 5.27476 185.931" stroke="#0541FB" stroke-width="8" stroke-linecap="round"/>
</svg>
