<svg width="91" height="66" viewBox="0 0 91 66" fill="none" xmlns="http://www.w3.org/2000/svg">
<path d="M0.788988 27.7411C1.67809 25.7625 4.32917 25.1496 5.75335 21.7171ZM0.788988 27.7411C1.87807 26.7518 2.6942 25.3149 5.75335 21.7171ZM0.82412 31.1735C4.8102 27.8095 7.73963 24.0976 9.33407 20.8447ZM0.82412 31.1735C3.98326 27.5957 6.78568 24.7847 9.33407 20.8447ZM0.683594 34.8198C2.86986 32.0374 7.35319 27.3448 12.2067 20.8362ZM0.683594 34.8198C5.5831 30.0075 9.71241 23.9009 12.2067 20.8362ZM0.718725 38.2523C5.9209 32.4764 10.8555 25.8595 15.0794 20.8248ZM0.718725 38.2523C5.4777 31.433 11.1447 25.3235 15.0794 20.8248ZM0.753857 41.6876C6.32086 33.7878 12.3419 29.1893 17.9521 20.8162ZM0.753857 41.6876C6.92891 34.3238 12.7013 26.4439 17.9521 20.8162ZM0.791691 45.1201C8.95032 37.3771 16.0739 27.034 20.8248 20.8048ZM0.791691 45.1201C8.72332 35.6409 15.8848 26.2301 20.8248 20.8048ZM0.826823 48.5526C8.44227 40.0968 14.2174 32.3966 23.6975 20.7963ZM0.826823 48.5526C9.22057 38.3806 16.6631 28.4367 23.6975 20.7963ZM0.686296 52.1989C6.78568 44.5614 13.0283 38.1326 26.5702 20.7877ZM0.686296 52.1989C7.54236 43.9171 15.0875 36.1598 26.5702 20.7877ZM0.721428 55.6314C8.91789 45.9782 17.4305 35.9687 29.4428 20.7763ZM0.721428 55.6314C6.61002 47.6631 13.1067 39.9087 29.4428 20.7763ZM1.4673 58.2058C7.76125 48.7921 14.7335 41.3569 32.3155 20.7678ZM1.4673 58.2058C8.72872 48.9403 16.0145 40.6841 32.3155 20.7678ZM2.74284 60.1301C11.4447 49.2653 20.6545 38.5431 35.1882 20.7564ZM2.74284 60.1301C10.3583 49.1656 18.9412 39.5409 35.1882 20.7564ZM4.37511 61.6268C13.9958 49.2995 23.6623 37.7506 38.0609 20.7478ZM4.37511 61.6268C12.8878 51.3893 22.7759 40.362 38.0609 20.7478ZM6.71541 62.2626C14.3309 53.3307 22.7192 43.1673 40.7579 20.9531ZM6.71541 62.2626C13.8336 53.1483 21.1113 43.1245 40.7579 20.9531ZM9.23408 62.6845C21.8247 45.3682 35.9125 29.4601 43.6306 20.9417ZM9.23408 62.6845C20.7762 48.0708 32.602 34.6345 43.6306 20.9417ZM12.1068 62.6731C20.3059 52.7691 29.9563 42.292 46.5033 20.9331ZM12.1068 62.6731C24.2028 48.0908 36.1881 34.9367 46.5033 20.9331ZM14.9794 62.6646C20.9113 53.5958 27.8646 44.262 49.376 20.9217ZM14.9794 62.6646C24.4217 51.9594 32.1696 41.8701 49.376 20.9217ZM17.8521 62.6531C32.783 45.9868 45.552 29.6569 52.2486 20.9132ZM17.8521 62.6531C27.0188 52.5011 35.0855 42.7681 52.2486 20.9132ZM20.7248 62.6446C34.0235 48.9973 43.9116 33.1549 55.1213 20.9046ZM20.7248 62.6446C30.9778 50.4542 41.8956 37.3087 55.1213 20.9046ZM23.5975 62.6332C33.2695 51.0215 41.5794 39.9543 57.994 20.8932ZM23.5975 62.6332C31.8507 52.4783 40.3147 41.9528 57.994 20.8932ZM26.4702 62.6246C40.5741 46.2804 53.0945 30.9312 60.8667 20.8846ZM26.4702 62.6246C34.9044 52.1476 43.9197 41.7333 60.8667 20.8846ZM29.3429 62.6161C38.1393 54.6934 44.2035 45.448 63.7394 20.8732ZM29.3429 62.6161C39.8823 50.0949 50.6326 37.3429 63.7394 20.8732ZM32.2155 62.6047C41.6605 50.286 51.5325 38.9508 66.0797 21.509ZM32.2155 62.6047C41.2984 52.1276 49.6003 41.508 66.0797 21.509ZM35.0882 62.5961C46.2952 49.3195 59.6236 32.5334 68.42 22.1447ZM35.0882 62.5961C43.2522 52.9858 51.4163 42.5258 68.42 22.1447ZM37.9609 62.5847C47.0248 50.5996 56.2212 39.9058 70.9386 22.5667ZM37.9609 62.5847C49.8029 48.9688 59.7425 36.0999 70.9386 22.5667ZM40.8336 62.5762C51.546 47.4379 63.2583 34.9852 72.5709 24.0605ZM40.8336 62.5762C50.5623 50.8333 59.1452 39.7547 72.5709 24.0605ZM43.5279 62.7814C51.3217 54.2002 59.5911 44.1081 73.1384 26.8487ZM43.5279 62.7814C54.6403 48.4015 65.9797 34.7486 73.1384 26.8487ZM46.4033 62.77C56.9698 49.7329 68.1741 37.4598 73.7059 29.6369ZM46.4033 62.77C56.6671 49.7557 66.6445 36.8383 73.7059 29.6369ZM49.276 62.7615C58.3696 51.4976 66.1094 40.4589 73.7411 33.0694ZM49.276 62.7615C57.2643 51.9651 66.2418 41.8074 73.7411 33.0694ZM52.1486 62.7501C56.8563 55.5088 62.8449 50.8276 73.7762 36.5019ZM52.1486 62.7501C57.54 55.1239 63.3394 48.0765 73.7762 36.5019ZM55.0213 62.7415C61.2693 55.6086 65.9229 48.5726 73.6357 40.151ZM55.0213 62.7415C61.7098 53.1483 68.9496 45.294 73.6357 40.151ZM57.894 62.733C61.0126 59.3404 63.234 54.97 73.6708 43.5835ZM57.894 62.733C63.3475 56.327 68.8632 50.0807 73.6708 43.5835ZM60.7667 62.7216C63.6826 58.4338 66.0526 56.2415 73.7086 47.016ZM60.7667 62.7216C65.7013 57.6327 69.7333 52.4783 73.7086 47.016ZM63.6394 62.713C67.5903 58.0632 70.263 55.4033 73.7438 50.4485ZM63.6394 62.713C66.5391 59.309 69.0956 56.7946 73.7438 50.4485ZM65.9797 63.3488C67.9579 60.4152 71.344 56.2643 73.9572 53.6643ZM65.9797 63.3488C68.0389 60.0645 70.7765 57.5187 73.9572 53.6643Z" stroke="#E82338" stroke-linecap="round"/>
<path d="M1.64055 27.7411C2.52965 25.7625 5.18073 25.1496 6.60491 21.7171ZM1.64055 27.7411C2.72963 26.7518 3.54576 25.3149 6.60491 21.7171ZM1.67568 31.1735C5.66176 27.8095 8.5912 24.0976 10.1856 20.8447ZM1.67568 31.1735C4.83482 27.5957 7.63724 24.7847 10.1856 20.8447ZM1.53516 34.8198C3.72142 32.0374 8.20475 27.3448 13.0583 20.8362ZM1.53516 34.8198C6.43466 30.0075 10.564 23.9009 13.0583 20.8362ZM1.57029 38.2523C6.77246 32.4764 11.7071 25.8595 15.931 20.8248ZM1.57029 38.2523C6.32926 31.433 11.9963 25.3235 15.931 20.8248ZM1.60542 41.6876C7.17242 33.7878 13.1934 29.1893 18.8037 20.8162ZM1.60542 41.6876C7.78047 34.3238 13.5529 26.4439 18.8037 20.8162ZM1.64325 45.1201C9.80189 37.3771 16.9255 27.034 21.6764 20.8048ZM1.64325 45.1201C9.57488 35.6409 16.7363 26.2301 21.6764 20.8048ZM1.67839 48.5526C9.29383 40.0968 15.0689 32.3966 24.549 20.7963ZM1.67839 48.5526C10.0721 38.3806 17.5146 28.4367 24.549 20.7963ZM1.53786 52.1989C7.63724 44.5614 13.8799 38.1326 27.4217 20.7877ZM1.53786 52.1989C8.39392 43.9171 15.9391 36.1598 27.4217 20.7877ZM1.57299 55.6314C9.76946 45.9782 18.2821 35.9687 30.2944 20.7763ZM1.57299 55.6314C7.46158 47.6631 13.9582 39.9087 30.2944 20.7763ZM2.31886 58.2058C8.61282 48.7921 15.5851 41.3569 33.1671 20.7678ZM2.31886 58.2058C9.58029 48.9403 16.866 40.6841 33.1671 20.7678ZM3.59441 60.1301C12.2962 49.2653 21.5061 38.5431 36.0398 20.7564ZM3.59441 60.1301C11.2099 49.1656 19.7928 39.5409 36.0398 20.7564ZM5.22667 61.6268C14.8473 49.2995 24.5139 37.7506 38.9124 20.7478ZM5.22667 61.6268C13.7393 51.3893 23.6275 40.362 38.9124 20.7478ZM7.56698 62.2626C15.1824 53.3307 23.5708 43.1673 41.6095 20.9531ZM7.56698 62.2626C14.6852 53.1483 21.9628 43.1245 41.6095 20.9531ZM10.0856 62.6845C22.6763 45.3682 36.764 29.4601 44.4822 20.9417ZM10.0856 62.6845C21.6277 48.0708 33.4535 34.6345 44.4822 20.9417ZM12.9583 62.6731C21.1575 52.7691 30.8079 42.292 47.3548 20.9331ZM12.9583 62.6731C25.0544 48.0908 37.0397 34.9367 47.3548 20.9331ZM15.831 62.6646C21.7628 53.5958 28.7162 44.262 50.2275 20.9217ZM15.831 62.6646C25.2733 51.9594 33.0212 41.8701 50.2275 20.9217ZM18.7037 62.6531C33.6346 45.9868 46.4036 29.6569 53.1002 20.9132ZM18.7037 62.6531C27.8703 52.5011 35.9371 42.7681 53.1002 20.9132ZM21.5764 62.6446C34.875 48.9973 44.7632 33.1549 55.9729 20.9046ZM21.5764 62.6446C31.8294 50.4542 42.7472 37.3087 55.9729 20.9046ZM24.449 62.6332C34.121 51.0215 42.431 39.9543 58.8456 20.8932ZM24.449 62.6332C32.7023 52.4783 41.1663 41.9528 58.8456 20.8932ZM27.3217 62.6246C41.4257 46.2804 53.9461 30.9312 61.7182 20.8846ZM27.3217 62.6246C35.756 52.1476 44.7713 41.7333 61.7182 20.8846ZM30.1944 62.6161C38.9908 54.6934 45.0551 45.448 64.5909 20.8732ZM30.1944 62.6161C40.7339 50.0949 51.4841 37.3429 64.5909 20.8732ZM33.0671 62.6047C42.5121 50.286 52.3841 38.9508 66.9312 21.509ZM33.0671 62.6047C42.15 52.1276 50.4518 41.508 66.9312 21.509ZM35.9398 62.5961C47.1467 49.3195 60.4751 32.5334 69.2715 22.1447ZM35.9398 62.5961C44.1038 52.9858 52.2678 42.5258 69.2715 22.1447ZM38.8125 62.5847C47.8764 50.5996 57.0728 39.9058 71.7902 22.5667ZM38.8125 62.5847C50.6545 48.9688 60.594 36.0999 71.7902 22.5667ZM41.6851 62.5762C52.3976 47.4379 64.1099 34.9852 73.4225 24.0605ZM41.6851 62.5762C51.4139 50.8333 59.9968 39.7547 73.4225 24.0605ZM44.3795 62.7814C52.1733 54.2002 60.4427 44.1081 73.99 26.8487ZM44.3795 62.7814C55.4918 48.4015 66.8312 34.7486 73.99 26.8487ZM47.2548 62.77C57.8213 49.7329 69.0256 37.4598 74.5575 29.6369ZM47.2548 62.77C57.5187 49.7557 67.496 36.8383 74.5575 29.6369ZM50.1275 62.7615C59.2212 51.4976 66.961 40.4589 74.5926 33.0694ZM50.1275 62.7615C58.1159 51.9651 67.0934 41.8074 74.5926 33.0694ZM53.0002 62.7501C57.7078 55.5088 63.6964 50.8276 74.6277 36.5019ZM53.0002 62.7501C58.3916 55.1239 64.191 48.0765 74.6277 36.5019ZM55.8729 62.7415C62.1209 55.6086 66.7745 48.5726 74.4872 40.151ZM55.8729 62.7415C62.5614 53.1483 69.8012 45.294 74.4872 40.151ZM58.7456 62.733C61.8642 59.3404 64.0856 54.97 74.5224 43.5835ZM58.7456 62.733C64.1991 56.327 69.7147 50.0807 74.5224 43.5835ZM61.6183 62.7216C64.5342 58.4338 66.9042 56.2415 74.5602 47.016ZM61.6183 62.7216C66.5529 57.6327 70.5849 52.4783 74.5602 47.016ZM64.4909 62.713C68.4419 58.0632 71.1146 55.4033 74.5953 50.4485ZM64.4909 62.713C67.3906 59.309 69.9471 56.7946 74.5953 50.4485ZM66.8312 63.3488C68.8094 60.4152 72.1956 56.2643 74.8088 53.6643ZM66.8312 63.3488C68.8905 60.0645 71.6281 57.5187 74.8088 53.6643Z" stroke="#E82338" stroke-linecap="round"/>
<path d="M18.8156 20.9962C26.8095 19.6074 37.688 19.4528 57.9415 20.9962M18.8156 20.9962C30.2974 20.2143 42.7219 20.9524 57.9415 20.9962M18.8156 20.9962C10.2325 20.4681 3.14827 25.1741 3.73273 30.3323M18.8156 20.9962C8.06434 20.0684 2.62979 25.1332 3.73273 30.3323M57.9415 20.9962C66.8686 21.5184 72.223 25.0049 73.0243 30.3323M57.9415 20.9962C65.9778 21.4776 71.3275 24.1033 73.0243 30.3323M73.0243 30.3323C73.3165 39.4816 71.7423 48.4472 73.0243 54.5507M73.0243 30.3323C71.5961 37.0105 72.0533 42.8368 73.0243 54.5507M73.0243 54.5507C73.7643 61.2523 69.4563 63.3383 57.9415 63.8868M73.0243 54.5507C73.67 61.8533 68.2873 64.7825 57.9415 63.8868M57.9415 63.8868C47.7087 62.498 34.0587 62.9853 18.8156 63.8868M57.9415 63.8868C43.6363 64.4003 28.5912 64.199 18.8156 63.8868M18.8156 63.8868C8.52154 62.8977 5.36356 61.8358 3.73273 54.5507M18.8156 63.8868C8.96931 65.1238 2.82304 61.1589 3.73273 54.5507M3.73273 54.5507C3.12941 45.9761 4.40203 36.9346 3.73273 30.3323M3.73273 54.5507C2.94088 47.2656 3.22368 39.1841 3.73273 30.3323" stroke="#0541FB" stroke-width="2" stroke-linecap="round"/>
<path d="M67.2824 6.07882L67.5044 15.1661M73.435 16.2555L80.3753 7.30192M80.0769 21.1951L87.7149 18.9102" stroke="#0541FB" stroke-width="3" stroke-linecap="round"/>
<path d="M28.8005 51.8466L27.5225 33.1022L47.1189 42.4744L28.8005 51.8466Z" fill="#F2EFE6" stroke="#0541FB"/>
<path d="M47.4643 42.9134C47.2268 42.7765 46.9885 42.64 46.7494 42.5039M48.7957 41.5058C47.2202 45.7653 37.6371 47.5289 29.979 51.4206M26.6811 53.2602C27.684 52.5835 28.8576 51.9904 29.979 51.4206M47.527 42.0165C47.322 42.2405 47.0621 42.475 46.7553 42.7184M29.2449 53.0971C31.1116 50.4603 42.8072 45.8512 46.7553 42.7184M28.1816 51.3734L27.7654 32.9512M29.979 51.4206L26.8865 32.5559C27.1798 32.6873 27.4728 32.8191 27.7654 32.9512M27.7654 32.9512C28.4616 33.2656 29.1555 33.5821 29.847 33.9007C35.7294 36.6111 41.4295 39.4738 46.7494 42.5039M46.7494 42.5039L46.7553 42.7184" stroke="#0541FB" stroke-width="2" stroke-linecap="round"/>
</svg>
